<svg xmlns="http://www.w3.org/2000/svg" width="10.183" height="10.804" viewBox="0 0 10.183 10.804">
    <path d="M24.856 3.515a.479.479 0 0 1-.133.519l-.914.831a4.022 4.022 0 0 1 0 1.072l.914.831a.479.479 0 0 1 .133.519 5.357 5.357 0 0 1-.331.724l-.1.171a5.56 5.56 0 0 1-.466.66.483.483 0 0 1-.517.143l-1.175-.376a4.617 4.617 0 0 1-.928.538l-.264 1.2a.506.506 0 0 1-.384.376 5.514 5.514 0 0 1-.916.074 5.4 5.4 0 0 1-.878-.074.506.506 0 0 1-.384-.376l-.264-1.2a4.147 4.147 0 0 1-.928-.538l-1.174.376a.482.482 0 0 1-.517-.143 5.537 5.537 0 0 1-.467-.66l-.1-.171a5.263 5.263 0 0 1-.333-.724.479.479 0 0 1 .134-.519l.913-.831a4.093 4.093 0 0 1 0-1.072l-.913-.831a.478.478 0 0 1-.134-.519 5.288 5.288 0 0 1 .333-.724l.1-.171a5.466 5.466 0 0 1 .467-.659.479.479 0 0 1 .517-.144l1.174.375a4.058 4.058 0 0 1 .928-.537l.264-1.2A.479.479 0 0 1 18.9.074a5.466 5.466 0 0 1 1.794 0 .479.479 0 0 1 .384.376l.264 1.2a4.506 4.506 0 0 1 .928.537l1.175-.375a.48.48 0 0 1 .517.144 5.463 5.463 0 0 1 .466.659l.1.171a5.357 5.357 0 0 1 .331.724zM19.793 7.09a1.7 1.7 0 1 0-1.688-1.707 1.692 1.692 0 0 0 1.688 1.707z" transform="translate(-14.702)" style="fill:#919191"/>
</svg>
