<svg xmlns="http://www.w3.org/2000/svg" width="32.219" height="32.219" viewBox="0 0 32.219 32.219">
    <path data-name="Pfad 958" d="M16.109 0a16.109 16.109 0 1 0 16.11 16.11A16.128 16.128 0 0 0 16.109 0m0 30.205a14.1 14.1 0 1 1 14.1-14.1 14.112 14.112 0 0 1-14.1 14.1" transform="rotate(-180 16.11 16.11)" style="fill:#ffffff"/>
    <path data-name="Pfad 959" d="M333.8 372.639h-13.175l4.962-4.962a1.007 1.007 0 0 0-1.424-1.424l-6.681 6.68a1.007 1.007 0 0 0 0 1.424l6.681 6.681a1.007 1.007 0 0 0 1.424-1.424l-4.963-4.962H333.8a1.007 1.007 0 0 0 0-2.014" transform="rotate(-180 171.054 194.877)" style="fill:#ffffff"/>
</svg>