<svg xmlns="http://www.w3.org/2000/svg" width="23.036" height="30.54" viewBox="0 0 23.036 30.54">
    <defs>
        <clipPath id="z9masafaga">
            <path data-name="Rechteck 601" style="fill:#306b76" d="M0 0h23.036v30.54H0z"/>
        </clipPath>
    </defs>
    <g data-name="Gruppe 1095" style="clip-path:url(#z9masafaga)">
        <path data-name="Pfad 860" d="M87.05 176.257s-2.943 2.429-2.943 5.473a2.942 2.942 0 1 0 5.885 0c0-3.044-2.942-5.473-2.942-5.473m-.328 7.807a2.352 2.352 0 0 1-1.989-1.9l.384-.072a1.963 1.963 0 0 0 1.659 1.584z" transform="translate(-77.551 -162.518)" style="fill:#306b76"/>
        <path data-name="Pfad 861" d="M180.844 148.671a1.574 1.574 0 0 0 1.574-1.574 4.454 4.454 0 0 0-1.574-2.928 4.454 4.454 0 0 0-1.574 2.928 1.574 1.574 0 0 0 1.574 1.574m-1.033-1.38a1.05 1.05 0 0 0 .887.847l-.029.207a1.258 1.258 0 0 1-1.064-1.016z" transform="translate(-165.297 -132.931)" style="fill:#306b76"/>
        <path data-name="Pfad 862" d="M129.151 107.578a3.547 3.547 0 0 0-1.254 2.332 1.254 1.254 0 1 0 2.507 0 3.547 3.547 0 0 0-1.254-2.332m-.14 3.326a1 1 0 0 1-.847-.809l.164-.031a.836.836 0 0 0 .707.675z" transform="translate(-117.928 -99.193)" style="fill:#306b76"/>
        <path data-name="Pfad 863" d="M20.97 4.654a11.906 11.906 0 0 1-3.857-.639A12.065 12.065 0 0 1 11.518 0a12.075 12.075 0 0 1-5.6 4.015 11.9 11.9 0 0 1-3.857.639A12.059 12.059 0 0 1 0 4.476V14.4a16.852 16.852 0 0 0 9.489 15.155l2.029.985 1.584-.769a6.476 6.476 0 0 1-.831-1.172l-.753.365-1.41-.685A15.432 15.432 0 0 1 1.418 14.4V6.056c.216.01.432.016.648.016a13.293 13.293 0 0 0 4.316-.716 13.29 13.29 0 0 0 5.136-3.214 13.294 13.294 0 0 0 5.136 3.214 13.3 13.3 0 0 0 4.317.716c.216 0 .432-.006.648-.016V14.4a15.406 15.406 0 0 1-.9 5.187 6.426 6.426 0 0 1 1.232.759 16.829 16.829 0 0 0 1.085-5.946V4.476a12.059 12.059 0 0 1-2.066.178" style="fill:#306b76"/>
        <path data-name="Pfad 864" d="M170.321 261.495a5.079 5.079 0 1 0 5.079 5.079 5.079 5.079 0 0 0-5.079-5.079m-.179 7.646L167.951 267l.828-.846 1.22 1.2 2.293-3.089.95.705z" transform="translate(-152.363 -241.112)" style="fill:#306b76"/>
    </g>
</svg>
