<svg xmlns="http://www.w3.org/2000/svg" width="31.191" height="17.955" viewBox="0 0 31.191 17.955">
    <defs>
        <clipPath id="7jnvbs74ea">
            <path data-name="Rechteck 587" style="fill:#fff" d="M0 0h31.191v17.955H0z"/>
        </clipPath>
    </defs>
    <g data-name="Gruppe 1067" style="clip-path:url(#7jnvbs74ea)">
        <path data-name="Pfad 818" d="M8.194 18.085a3.591 3.591 0 1 1 3.591-3.591 3.595 3.595 0 0 1-3.591 3.591m0-6.2a2.614 2.614 0 1 0 2.614 2.614 2.616 2.616 0 0 0-2.614-2.619" transform="translate(-.055 -.13)" style="fill:#fff"/>
        <path data-name="Pfad 818 - Kontur" d="M8.194 18.335a3.841 3.841 0 1 1 3.841-3.841 3.845 3.845 0 0 1-3.841 3.841zm0-7.182a3.341 3.341 0 1 0 3.341 3.341 3.345 3.345 0 0 0-3.341-3.341zm0 6.2a2.864 2.864 0 1 1 2.864-2.864 2.867 2.867 0 0 1-2.864 2.868zm0-5.227a2.364 2.364 0 1 0 2.364 2.364 2.366 2.366 0 0 0-2.364-2.36z" transform="translate(-.055 -.13)" style="fill:#fff"/>
        <path data-name="Pfad 819" d="M23.331 18.085a3.591 3.591 0 1 1 3.591-3.591 3.595 3.595 0 0 1-3.591 3.591m0-6.2a2.614 2.614 0 1 0 2.614 2.614 2.616 2.616 0 0 0-2.614-2.614" transform="translate(-.235 -.13)" style="fill:#fff"/>
        <path data-name="Pfad 819 - Kontur" d="M23.331 18.335a3.841 3.841 0 1 1 3.841-3.841 3.845 3.845 0 0 1-3.841 3.841zm0-7.182a3.341 3.341 0 1 0 3.341 3.341 3.345 3.345 0 0 0-3.341-3.341zm0 6.2a2.864 2.864 0 1 1 2.864-2.864 2.867 2.867 0 0 1-2.864 2.868zm0-5.227a2.364 2.364 0 1 0 2.364 2.364 2.366 2.366 0 0 0-2.364-2.36z" transform="translate(-.235 -.13)" style="fill:#fff"/>
        <path data-name="Pfad 820" d="M20.224 14.217h-8.963a.489.489 0 1 1 0-.977h8.963a.489.489 0 1 1 0 .977" transform="translate(-.128 -.158)" style="fill:#fff"/>
        <path data-name="Pfad 820 - Kontur" d="M20.224 14.467h-8.963a.739.739 0 1 1 0-1.477h8.963a.739.739 0 1 1 0 1.477zm-8.963-.977a.239.239 0 1 0 0 .477h8.963a.239.239 0 1 0 0-.477z" transform="translate(-.128 -.158)" style="fill:#fff"/>
        <path data-name="Pfad 821" d="M29.114 14.139h-3.025a.489.489 0 1 1 0-.977h3.026a1.1 1.1 0 0 0 1.1-1.1V8.7a1.1 1.1 0 0 0-1.1-1.1H2.076a1.1 1.1 0 0 0-1.1 1.1v3.364a1.1 1.1 0 0 0 1.1 1.1h3.065a.489.489 0 1 1 0 .977H2.076A2.079 2.079 0 0 1 0 12.062V8.7a2.079 2.079 0 0 1 2.076-2.078h27.038A2.079 2.079 0 0 1 31.191 8.7v3.364a2.079 2.079 0 0 1-2.077 2.077" transform="translate(0 -.079)" style="fill:#fff"/>
        <path data-name="Pfad 821 - Kontur" d="M29.114 14.389h-3.025a.739.739 0 1 1 0-1.477h3.026a.851.851 0 0 0 .85-.85V8.7a.85.85 0 0 0-.85-.849H2.076a.85.85 0 0 0-.849.849v3.364a.85.85 0 0 0 .849.85h3.065a.739.739 0 1 1 0 1.477H2.076A2.329 2.329 0 0 1-.25 12.062V8.7a2.329 2.329 0 0 1 2.326-2.328h27.038A2.329 2.329 0 0 1 31.441 8.7v3.364a2.33 2.33 0 0 1-2.327 2.325zm-3.026-.977a.239.239 0 1 0 0 .477h3.026a1.829 1.829 0 0 0 1.827-1.827V8.7a1.829 1.829 0 0 0-1.827-1.826H2.076A1.828 1.828 0 0 0 .25 8.7v3.364a1.829 1.829 0 0 0 1.826 1.827h3.065a.239.239 0 1 0 0-.477H2.076a1.351 1.351 0 0 1-1.349-1.35V8.7a1.35 1.35 0 0 1 1.349-1.351h27.038a1.351 1.351 0 0 1 1.35 1.351v3.364a1.351 1.351 0 0 1-1.35 1.35z" transform="translate(0 -.079)" style="fill:#fff"/>
        <path data-name="Pfad 822" d="M3.459 7.521a.482.482 0 0 1-.188-.038.489.489 0 0 1-.264-.639L4.944 2.2A3.563 3.563 0 0 1 8.242 0h10.55A3.579 3.579 0 0 1 21.4 1.135L26.59 6.7a.488.488 0 1 1-.713.666L20.689 1.8a2.605 2.605 0 0 0-1.9-.824H8.242a2.587 2.587 0 0 0-2.394 1.6L3.911 7.22a.491.491 0 0 1-.452.3" transform="translate(-.035)" style="fill:#fff"/>
        <path data-name="Pfad 822 - Kontur" d="M26.232 7.771a.734.734 0 0 1-.54-.238l-5.186-5.561a2.354 2.354 0 0 0-1.714-.745H8.242a2.338 2.338 0 0 0-2.164 1.442L4.141 7.316a.739.739 0 0 1-1.365-.568L4.713 2.1A3.813 3.813 0 0 1 8.242-.25h10.55A3.831 3.831 0 0 1 21.586.965l5.186 5.563a.739.739 0 0 1-.54 1.243zM8.242.727h10.55a2.856 2.856 0 0 1 2.08.9L26.06 7.19a.231.231 0 0 0 .173.077.24.24 0 0 0 .163-.065.238.238 0 0 0 .011-.337L21.22 1.306A3.33 3.33 0 0 0 18.791.25H8.242a3.315 3.315 0 0 0-3.067 2.043L3.238 6.94a.24.24 0 0 0 .129.312.232.232 0 0 0 .092.018.242.242 0 0 0 .221-.147l1.937-4.646A2.837 2.837 0 0 1 8.242.727z" transform="translate(-.035)" style="fill:#fff"/>
        <path data-name="Pfad 823" d="M13.652 7.518a.489.489 0 0 1-.489-.489V.489a.489.489 0 1 1 .978 0v6.54a.489.489 0 0 1-.489.489" transform="translate(-.157)" style="fill:#fff"/>
        <path data-name="Pfad 823 - Kontur" d="M13.652 7.768a.74.74 0 0 1-.739-.739V.489a.739.739 0 1 1 1.478 0v6.54a.74.74 0 0 1-.739.739zm0-7.518a.239.239 0 0 0-.239.239v6.54a.239.239 0 1 0 .478 0V.489a.239.239 0 0 0-.239-.239z" transform="translate(-.157)" style="fill:#fff"/>
    </g>
</svg>
