<svg xmlns="http://www.w3.org/2000/svg" width="25.821" height="14.863" viewBox="0 0 25.821 14.863">
    <defs>
        <clipPath id="pf2s2z4vha">
            <path data-name="Rechteck 587" style="fill:#e8a422;stroke:#e8a422;stroke-width:.5px" d="M0 0h25.821v14.863H0z"/>
        </clipPath>
    </defs>
    <g data-name="Gruppe 1067" style="clip-path:url(#pf2s2z4vha)">
        <path data-name="Pfad 818" d="M7.576 16.848a2.973 2.973 0 1 1 2.973-2.973 2.976 2.976 0 0 1-2.973 2.973m0-5.136a2.164 2.164 0 1 0 2.164 2.164 2.166 2.166 0 0 0-2.164-2.164" transform="translate(-.838 -1.985)" style="fill:#e8a422;stroke:#e8a422;stroke-width:.5px"/>
        <path data-name="Pfad 819" d="M22.713 16.848a2.973 2.973 0 1 1 2.973-2.973 2.976 2.976 0 0 1-2.973 2.973m0-5.136a2.164 2.164 0 1 0 2.164 2.164 2.166 2.166 0 0 0-2.164-2.164" transform="translate(-3.593 -1.985)" style="fill:#e8a422;stroke:#e8a422;stroke-width:.5px"/>
        <path data-name="Pfad 820" d="M18.6 14.049h-7.42a.4.4 0 1 1 0-.809h7.42a.4.4 0 1 1 0 .809" transform="translate(-1.961 -2.41)" style="fill:#e8a422;stroke:#e8a422;stroke-width:.5px"/>
        <path data-name="Pfad 821" d="M24.1 12.844h-2.5a.4.4 0 1 1 0-.809h2.5a.912.912 0 0 0 .91-.91V8.341a.911.911 0 0 0-.91-.91H1.719a.911.911 0 0 0-.91.91v2.784a.911.911 0 0 0 .91.91h2.537a.4.4 0 1 1 0 .809H1.719A1.721 1.721 0 0 1 0 11.125V8.341a1.721 1.721 0 0 1 1.719-1.719H24.1a1.721 1.721 0 0 1 1.719 1.719v2.784a1.721 1.721 0 0 1-1.719 1.719" transform="translate(0 -1.206)" style="fill:#e8a422;stroke:#e8a422;stroke-width:.5px"/>
        <path data-name="Pfad 822" d="M3.375 6.226a.4.4 0 0 1-.155-.031.405.405 0 0 1-.22-.53l1.6-3.847A2.949 2.949 0 0 1 7.334 0h8.733a2.963 2.963 0 0 1 2.162.94l4.294 4.605a.4.4 0 1 1-.591.551l-4.294-4.605a2.157 2.157 0 0 0-1.571-.682H7.334A2.142 2.142 0 0 0 5.352 2.13l-1.6 3.847a.406.406 0 0 1-.374.249" transform="translate(-.541)" style="fill:#e8a422;stroke:#e8a422;stroke-width:.5px"/>
        <path data-name="Pfad 823" d="M13.568 6.223a.4.4 0 0 1-.4-.4V.4a.4.4 0 1 1 .81 0v5.418a.4.4 0 0 1-.4.4" transform="translate(-2.396)" style="fill:#e8a422;stroke:#e8a422;stroke-width:.5px"/>
    </g>
</svg>
