<svg xmlns="http://www.w3.org/2000/svg" width="20" height="20.001" viewBox="0 0 20 20.001">
    <path d="M6101.441-166.3a9.511 9.511 0 0 1-9.5-9.5 9.511 9.511 0 0 1 9.5-9.5 9.51 9.51 0 0 1 9.5 9.5 9.511 9.511 0 0 1-9.5 9.5zm-2.262-5.743a1.509 1.509 0 0 0-1.09.461l-1.98 1.98-.019.017a8.048 8.048 0 0 0 4.667 1.933v-2.826a1.541 1.541 0 0 0-.965-1.443 1.589 1.589 0 0 0-.613-.122zm4.412 0a1.605 1.605 0 0 0-.614.122 1.54 1.54 0 0 0-.965 1.443v2.826a8.039 8.039 0 0 0 4.666-1.933l-.018-.017-1.98-1.98a1.507 1.507 0 0 0-1.09-.461zm3.083-3.1a1.54 1.54 0 0 0-1.444.965 1.542 1.542 0 0 0 .338 1.7l1.982 1.98.017.018a8.049 8.049 0 0 0 1.932-4.666zm-13.4 0a8.045 8.045 0 0 0 1.933 4.666l.018-.018 1.98-1.98a1.541 1.541 0 0 0 .339-1.7 1.545 1.545 0 0 0-1.445-.965zm8.114 1.844a.505.505 0 0 0-.505.5v.053a.507.507 0 0 0 .482.451.127.127 0 0 1 .013.016l.007.009.015-.018.005-.006a.508.508 0 0 0 .483-.452v-.053a.505.505 0 0 0-.504-.495zm2.1-.873a.5.5 0 0 0-.357.15.505.505 0 0 0 0 .712.347.347 0 0 0 .039.036.5.5 0 0 0 .317.112.508.508 0 0 0 .343-.133h.032a.22.22 0 0 0 0-.032.509.509 0 0 0 .023-.66l-.012-.013a.29.29 0 0 0-.024-.026.5.5 0 0 0-.36-.142zm-4.551.878a.505.505 0 0 0 .342.133.5.5 0 0 0 .317-.112.408.408 0 0 0 .04-.036.506.506 0 0 0 0-.712.5.5 0 0 0-.357-.149.5.5 0 0 0-.357.149.347.347 0 0 0-.035.039.5.5 0 0 0 .021.66.081.081 0 0 0 0 .011v.017a.013.013 0 0 0 .009 0h.023zm2.446-4.162a1.687 1.687 0 0 0-1.685 1.686 1.687 1.687 0 0 0 1.685 1.686 1.688 1.688 0 0 0 1.686-1.686 1.688 1.688 0 0 0-1.685-1.682zm2.976 1.18a.506.506 0 0 0-.5.505.5.5 0 0 0 .5.5.35.35 0 0 0 .054 0 .507.507 0 0 0 .452-.48l.008-.007a.089.089 0 0 1 .017-.014l-.016-.013-.009-.007a.51.51 0 0 0-.452-.482zm-5.952 0h-.053a.508.508 0 0 0-.451.482.222.222 0 0 0-.025.021l.008.006.017.014a.5.5 0 0 0 .451.48.341.341 0 0 0 .053 0 .5.5 0 0 0 .5-.5.505.505 0 0 0-.499-.498zm-3.205-4.788a8.047 8.047 0 0 0-1.933 4.666h2.825a1.545 1.545 0 0 0 1.445-.965 1.541 1.541 0 0 0-.339-1.7l-1.981-1.982zm12.344.016-1.979 1.981a1.542 1.542 0 0 0-.338 1.7 1.54 1.54 0 0 0 1.444.965h2.824a8.043 8.043 0 0 0-1.932-4.666l-.018.017zm-4.06 2.667a.5.5 0 0 0-.317.114.425.425 0 0 0-.039.035.506.506 0 0 0 0 .714.5.5 0 0 0 .357.148.5.5 0 0 0 .357-.148l.026-.028.01-.011a.508.508 0 0 0-.023-.66.263.263 0 0 0 0-.032h-.031a.508.508 0 0 0-.338-.128zm-4.583.132a.073.073 0 0 1 0 .011v.021a.505.505 0 0 0-.021.66.31.31 0 0 0 .022.025l.009.01a.5.5 0 0 0 .357.148.5.5 0 0 0 .357-.148.507.507 0 0 0 0-.714.382.382 0 0 0-.03-.027l-.009-.008a.5.5 0 0 0-.318-.113.5.5 0 0 0-.342.134zm2.479-1.028-.007.009-.013.016a.51.51 0 0 0-.482.451v.053a.506.506 0 0 0 .505.505.506.506 0 0 0 .505-.505v-.053a.508.508 0 0 0-.482-.451l-.02-.024zm.627-4.607v2.826a1.54 1.54 0 0 0 .965 1.443 1.617 1.617 0 0 0 .613.121 1.513 1.513 0 0 0 1.089-.46l1.981-1.98.017-.018a8.05 8.05 0 0 0-4.667-1.932zm-1.255 0a8.065 8.065 0 0 0-4.667 1.933l2 2a1.514 1.514 0 0 0 1.09.46 1.611 1.611 0 0 0 .612-.121 1.541 1.541 0 0 0 .965-1.443v-2.827z" transform="translate(-6091.441 185.8)" style="fill:#89b459;stroke:transparent;stroke-miterlimit:10"/>
</svg>
