<svg xmlns="http://www.w3.org/2000/svg" width="24.857" height="24.86" viewBox="0 0 24.857 24.86">
    <path d="M12.429 24.86a12.43 12.43 0 1 1 12.428-12.431A12.444 12.444 0 0 1 12.429 24.86zm-2.96-7.515a1.974 1.974 0 0 0-1.426.6L5.452 20.54l-.024.022a10.529 10.529 0 0 0 6.105 2.529v-3.7a2.016 2.016 0 0 0-1.263-1.888 2.078 2.078 0 0 0-.801-.157zm5.772 0a2.1 2.1 0 0 0-.8.16 2.015 2.015 0 0 0-1.263 1.888v3.7a10.517 10.517 0 0 0 6.1-2.529l-.024-.022-2.59-2.591a1.972 1.972 0 0 0-1.423-.605zm4.034-4.05a2.045 2.045 0 0 0-1.447 3.49l2.593 2.591.022.024a10.531 10.531 0 0 0 2.527-6.1zm-17.536 0a10.526 10.526 0 0 0 2.529 6.1l.024-.024 2.59-2.591a2.045 2.045 0 0 0-1.447-3.48zm10.615 2.413a.661.661 0 0 0-.661.66v.069a.664.664 0 0 0 .631.59.166.166 0 0 1 .017.021l.01.012.019-.024.007-.008a.664.664 0 0 0 .632-.592v-.069a.661.661 0 0 0-.655-.658zm2.754-1.143a.652.652 0 0 0-.467.2.661.661 0 0 0 0 .932.454.454 0 0 0 .051.047.662.662 0 0 0 .863-.027.3.3 0 0 1 .042 0 .288.288 0 0 0 0-.042.665.665 0 0 0 .03-.863l-.016-.017a.38.38 0 0 0-.032-.034.651.651 0 0 0-.471-.195zm-5.954 1.149a.661.661 0 0 0 .862.027.533.533 0 0 0 .052-.047.662.662 0 0 0 0-.932.659.659 0 0 0-.935 0 .454.454 0 0 0-.045.051.656.656 0 0 0 .027.863.105.105 0 0 0 0 .014v.022a.017.017 0 0 0 .012 0h.03zm3.2-5.445a2.206 2.206 0 1 0 2.206 2.206 2.207 2.207 0 0 0-2.206-2.206zm3.894 1.544a.66.66 0 0 0 0 1.321.458.458 0 0 0 .07 0 .663.663 0 0 0 .591-.629l.011-.009a.116.116 0 0 1 .022-.018l-.021-.018-.011-.01a.667.667 0 0 0-.591-.63.31.31 0 0 0-.071-.007zm-7.787 0h-.07a.665.665 0 0 0-.59.63.291.291 0 0 0-.033.027l.01.008.022.022a.66.66 0 0 0 .59.629.446.446 0 0 0 .07 0 .66.66 0 0 0 0-1.321zM4.268 5.549a10.529 10.529 0 0 0-2.528 6.1h3.7a2.045 2.045 0 0 0 1.448-3.49L4.29 5.571zm16.15.021-2.59 2.593a2.045 2.045 0 0 0 1.447 3.49h3.695a10.524 10.524 0 0 0-2.527-6.1l-.024.022zm-5.311 3.489a.649.649 0 0 0-.415.149 1.093 1.093 0 0 0-.051.045.66.66 0 1 0 .934.934l.034-.036.013-.014a.664.664 0 0 0-.03-.863.344.344 0 0 0 0-.042h-.041a.664.664 0 0 0-.444-.173zm-6 .173a.1.1 0 0 1 0 .014v.028a.661.661 0 0 0-.027.863.405.405 0 0 0 .029.033v.005l.011.012a.661.661 0 0 0 .935-.934.5.5 0 0 0-.039-.035l-.012-.01a.66.66 0 0 0-.863.027.337.337 0 0 0-.029-.003zm3.243-1.345-.009.012-.017.02a.667.667 0 0 0-.631.591v.069a.661.661 0 1 0 1.322 0V8.51a.665.665 0 0 0-.631-.59l-.026-.032zm.82-6.028v3.7a2.015 2.015 0 0 0 1.263 1.888 2.115 2.115 0 0 0 .8.159A1.98 1.98 0 0 0 16.666 7l2.592-2.59.022-.024a10.531 10.531 0 0 0-6.105-2.527zm-1.642 0a10.552 10.552 0 0 0-6.1 2.527L8.043 7a1.981 1.981 0 0 0 1.426.6 2.107 2.107 0 0 0 .8-.159 2.016 2.016 0 0 0 1.263-1.888v-3.7z" style="fill:#fff"/>
</svg>
