<svg xmlns="http://www.w3.org/2000/svg" width="18.6" height="18.601" viewBox="0 0 18.6 18.601">
    <path d="M6.2 9.3a3.1 3.1 0 1 1 3.1 3.1 3.1 3.1 0 0 1-3.1-3.1m-1.676 0A4.776 4.776 0 1 0 9.3 4.525 4.775 4.775 0 0 0 4.525 9.3m8.624-4.965a1.116 1.116 0 1 0 1.116-1.115 1.117 1.117 0 0 0-1.116 1.116M5.543 16.87a5.137 5.137 0 0 1-1.727-.32 2.893 2.893 0 0 1-1.07-.7 2.875 2.875 0 0 1-.7-1.069 5.137 5.137 0 0 1-.32-1.727c-.045-.98-.054-1.275-.054-3.758s.01-2.777.054-3.758a5.161 5.161 0 0 1 .32-1.727 2.893 2.893 0 0 1 .7-1.07 2.871 2.871 0 0 1 1.07-.7 5.137 5.137 0 0 1 1.727-.32c.98-.045 1.275-.054 3.758-.054s2.777.01 3.758.054a5.161 5.161 0 0 1 1.727.32 2.883 2.883 0 0 1 1.07.7 2.887 2.887 0 0 1 .7 1.07 5.137 5.137 0 0 1 .32 1.727c.045.981.054 1.275.054 3.758s-.009 2.777-.054 3.758a5.157 5.157 0 0 1-.32 1.727 3.079 3.079 0 0 1-1.765 1.765 5.137 5.137 0 0 1-1.727.32c-.98.045-1.275.054-3.758.054s-2.777-.009-3.758-.054M5.466.056a6.822 6.822 0 0 0-2.257.432 4.564 4.564 0 0 0-1.648 1.073A4.551 4.551 0 0 0 .488 3.209a6.822 6.822 0 0 0-.432 2.257C.011 6.458 0 6.775 0 9.3s.011 2.843.056 3.834a6.822 6.822 0 0 0 .432 2.257 4.547 4.547 0 0 0 1.073 1.647 4.561 4.561 0 0 0 1.647 1.073 6.826 6.826 0 0 0 2.257.432c.992.045 1.309.056 3.834.056s2.843-.011 3.834-.056a6.822 6.822 0 0 0 2.257-.432 4.755 4.755 0 0 0 2.72-2.72 6.8 6.8 0 0 0 .432-2.257c.045-.992.056-1.309.056-3.834s-.011-2.843-.056-3.834a6.822 6.822 0 0 0-.432-2.257 4.574 4.574 0 0 0-1.073-1.647A4.561 4.561 0 0 0 15.393.488a6.811 6.811 0 0 0-2.258-.432C12.144.011 11.827 0 9.3 0S6.458.011 5.466.056" style="fill:#fff"/>
</svg>
