<svg xmlns="http://www.w3.org/2000/svg" width="18.354" height="25.244" viewBox="0 0 18.354 25.244">
    <defs>
        <clipPath id="ohab2wab2a">
            <path data-name="Rechteck 592" style="fill:#fff" d="M0 0h18.354v25.244H0z"/>
        </clipPath>
    </defs>
    <g data-name="Gruppe 1075" style="clip-path:url(#ohab2wab2a)">
        <path data-name="Pfad 845" d="M18.332 8.475A9.366 9.366 0 0 0 9.17 0H9.1A9.188 9.188 0 0 0 0 9.174C0 16.94 8.222 24.68 8.572 25.006a.888.888 0 0 0 1.211 0c.371-.345 9.073-8.54 8.549-16.531M9.177 23.1c-1.866-1.916-7.4-8.09-7.4-13.929a7.411 7.411 0 0 1 7.34-7.4h.054a7.542 7.542 0 0 1 7.386 6.814c.393 6-5.453 12.532-7.381 14.512" style="fill:#fff"/>
        <path data-name="Pfad 846" d="M104.933 100.646a4.2 4.2 0 1 0 4.2 4.2 4.209 4.209 0 0 0-4.2-4.2m0 6.631a2.427 2.427 0 1 1 2.427-2.427 2.429 2.429 0 0 1-2.427 2.427" transform="translate(-95.756 -95.677)" style="fill:#fff"/>
    </g>
</svg>
