<svg xmlns="http://www.w3.org/2000/svg" width="14.652" height="10.239" viewBox="0 0 14.652 10.239">
    <path data-name="Pfad 961" d="M262.877 144.156a1.062 1.062 0 0 0-.071-.381l-5.01 4.432 5.01 4.432a1.062 1.062 0 0 0 .071-.381z" transform="translate(-248.225 -143.087)" style="fill:#e8a422"/>
    <path data-name="Pfad 962" d="m112.59 137.993 6.648-5.882a1.063 1.063 0 0 0-.391-.074h-12.514a1.063 1.063 0 0 0-.391.074z" transform="translate(-105.262 -132.037)" style="fill:#e8a422"/>
    <path data-name="Pfad 963" d="M94.434 143.775a1.064 1.064 0 0 0-.071.381v8.1a1.063 1.063 0 0 0 .071.381l5.01-4.432z" transform="translate(-94.363 -143.087)" style="fill:#e8a422"/>
    <path data-name="Pfad 964" d="m114.187 229.274-1.276 1.129a.483.483 0 0 1-.64 0L111 229.274l-5.052 4.47a1.063 1.063 0 0 0 .391.074h12.515a1.063 1.063 0 0 0 .391-.074z" transform="translate(-105.263 -223.579)" style="fill:#e8a422"/>
</svg>
