<svg xmlns="http://www.w3.org/2000/svg" width="23.768" height="23.801" viewBox="0 0 23.768 23.801">
    <path data-name="Pfad 936" d="m1774.914 1792.011 2.535 2.535 3.849-3.849-.28-.28a.6.6 0 0 1 .013-.843l.666-.666-1.84-1.84zm6.726-6.726 1.84 1.84.666-.665a.6.6 0 0 1 .843-.013l.281.28 4.087-4.087-2.535-2.535z" transform="translate(-1770.457 -1775.617)" style="fill:#fff"/>
    <path data-name="Pfad 937" d="M3553.036 1020.52a4.212 4.212 0 0 0-2.343-.1 4.389 4.389 0 0 0-3.359 4.174 4.082 4.082 0 0 0 4.168 4.168 4.386 4.386 0 0 0 4.173-3.359 4.212 4.212 0 0 0-.1-2.342l-2.614 2.614a.74.74 0 0 1-1.027-.122l-1.386-1.386a.74.74 0 0 1-.122-1.027z" transform="translate(-3532.409 -1020.298)" style="fill:#fff"/>
    <path data-name="Pfad 938" d="M1027.495 3569.545a4.169 4.169 0 1 0 1.221 2.948 4.169 4.169 0 0 0-1.221-2.948m-.74 1.989.031 1.842-1.28 1.324-1.842.031-1.324-1.281-.031-1.842 1.281-1.324 1.842-.031z" transform="translate(-1020.379 -3553.274)" style="fill:#fff"/>
    <path data-name="Pfad 939" d="m3183.214 3230.253 1.5-1.5a1.459 1.459 0 0 1 2.069 0l5.876 5.876a1.46 1.46 0 0 1 0 2.069l-1.5 1.5a1.46 1.46 0 0 1-2.069 0l-5.876-5.876a1.46 1.46 0 0 1 0-2.069" transform="translate(-3169.318 -3214.828)" style="fill:#fff"/>
    <path data-name="Pfad 940" d="m1129.366 1173.785-1.171 1.168 2.207 2.931 2.535.644-.64-2.533z" transform="translate(-1127.559 -1172.878)" style="fill:#fff"/>
    <path data-name="Pfad 941" d="m2879.986 2928.152 2.623-2.623a.5.5 0 0 1 .71-.012l.382.382a.5.5 0 0 1-.011.71l-2.623 2.623a.5.5 0 0 1-.709.012l-.382-.382a.5.5 0 0 1 .011-.71" transform="translate(-2868.156 -2913.667)" style="fill:#fff"/>
    <path data-name="Pfad 942" d="m3057.427 3103.967 1-1c.3-.3.666-.412.823-.254l1.205 1.205c.158.158.044.525-.254.823l-1 1c-.3.3-.666.412-.823.254l-1.205-1.2c-.158-.158-.044-.525.254-.823" transform="translate(-3044.378 -3089.886)" style="fill:#fff"/>
    <path data-name="Rechteck 649" transform="rotate(-45.001 8.11 -2.202)" style="fill:#fff" d="M0 0h1.255v12.839H0z"/>
</svg>
