<svg xmlns="http://www.w3.org/2000/svg" width="51.426" height="56.304" viewBox="0 0 51.426 56.304">
    <defs>
        <clipPath id="sktplv92ga">
            <path data-name="Rechteck 652" style="fill:#e8a422;stroke:transparent" d="M0 0h51.426v56.304H0z"/>
        </clipPath>
    </defs>
    <g data-name="Gruppe 1159" style="clip-path:url(#sktplv92ga)">
        <path data-name="Pfad 944" d="M52.168 28.96h-10.9c-1.352 0-2.7.006-4.055 0h-.148q-.149 0-.3-.019c-.082-.008-.2-.065.019.005a1.948 1.948 0 0 0-.209-.036 4.408 4.408 0 0 1-.557-.147q-.074-.025-.147-.052c-.064-.024-.195-.109.017.011-.1-.054-.2-.092-.3-.144a4.442 4.442 0 0 1-.5-.306 1.507 1.507 0 0 0-.123-.09c.2.112.074.057.017.01q-.117-.1-.228-.2t-.213-.218a1.964 1.964 0 0 0-.2-.232c.011.009.127.172.043.055-.03-.042-.06-.082-.089-.125q-.1-.147-.191-.3-.077-.133-.144-.272l-.044-.093c-.04-.088-.023-.176.006.019a2.1 2.1 0 0 0-.106-.293q-.056-.174-.1-.353-.03-.129-.052-.259c-.015-.088.015-.2 0 .021a1.155 1.155 0 0 0-.017-.16 4.981 4.981 0 0 1-.016-.386v-8.398a2.984 2.984 0 0 1 .044-.776c-.062.218 0 .018.006-.033q.016-.1.035-.2.032-.164.073-.325a3.718 3.718 0 0 1 .27-.823c-.1.2 0 0 .018-.037l.057-.121q.087-.181.187-.356c.033-.059.221-.286.21-.344.013.075-.146.161-.082.1.331-.3.634-.638.948-.954l1.025-1.029a5.372 5.372 0 0 0 1.221-1.911c.262-.689.52-1.379.78-2.069l1.231-3.266.386-1.023.06-.171.02-.053q.053-.131-.023.053c.013 0 .133-.272.148-.3q.066-.121.141-.237.045-.069.092-.137l.064-.089q-.122.156-.036.047a4.677 4.677 0 0 1 .411-.433q.06-.054.123-.106l.042-.034q.109-.086-.048.037c.025 0 .109-.079.132-.094q.089-.061.182-.117.116-.07.236-.132.072-.037.146-.071l.049-.022-.058.025c.063.014.242-.088.309-.108q.157-.048.318-.083.081-.017.163-.031l.055-.009q.143-.021-.067.009a1.266 1.266 0 0 0 .335-.024H61.3c.095 0 .189 0 .284.011a.643.643 0 0 0 .168.016q-.209-.029-.065-.007l.11.02a3.8 3.8 0 0 1 .586.164l.052.019q.131.052-.056-.025c.019.026.119.054.15.069q.16.078.312.172c.086.053.168.11.251.167.16.11-.15-.13 0 0 .042.036.084.07.125.107q.123.11.236.23a2.219 2.219 0 0 0 .216.252L63.6 2.85l.065.09q.048.069.093.14.09.143.168.293c.037.072.071.145.1.219.272.609.538 1.222.807 1.832l2.459 5.582a10.023 10.023 0 0 0 1.423 2.032l.909 1.158c.021.027.041.057.064.082-.153-.165.031.046.058.085q.131.186.247.38a6.207 6.207 0 0 1 .33.628c.021.047.128.215.014.028a1.06 1.06 0 0 1 .07.18q.078.211.141.428a6.236 6.236 0 0 1 .157.691c.008.048.06.258.007.024a1.53 1.53 0 0 1 .021.193q.018.194.024.389v8.08c0 .109 0 .218-.012.326 0 .054-.01.107-.015.161-.017.194.037-.211 0-.02a5.18 5.18 0 0 1-.143.615c-.031.1-.067.2-.1.294-.064.177.088-.188.009-.018l-.065.14a4.431 4.431 0 0 1-.306.532l-.087.126c-.052.072-.145.118.013-.014a1.825 1.825 0 0 0-.164.195 4.464 4.464 0 0 1-.475.459.647.647 0 0 0-.079.064c.131-.158.086-.065.014-.013s-.168.117-.254.171a5.037 5.037 0 0 1-.544.288c-.17.079.195-.072.018-.009l-.146.054q-.148.051-.3.092-.127.034-.256.061-.078.016-.156.029l-.105.017q.216-.028.073-.011a5.945 5.945 0 0 1-.517.026h-15a.873.873 0 0 0 0 1.745H63.2c1.329 0 2.658.007 3.987 0a5.309 5.309 0 0 0 5.314-5.312v-6.958a9.783 9.783 0 0 0-.331-3.063 7.627 7.627 0 0 0-1.307-2.386l-.918-1.169-.835-1.064-.019-.024c.218.272-.016-.035-.06-.109a3.017 3.017 0 0 1-.165-.321l-.087-.2-1.08-2.451c-.725-1.647-1.441-3.3-2.177-4.94A4.7 4.7 0 0 0 61.272 0H43.094a5.216 5.216 0 0 0-1.52.2 4.916 4.916 0 0 0-2.5 1.768 9.44 9.44 0 0 0-1.1 2.421c-.672 1.781-1.365 3.556-2.015 5.345a.5.5 0 0 0-.026.067l.039-.089a6.115 6.115 0 0 1-.053.118q-.041.088-.086.173-.075.142-.161.279-.051.082-.107.161-.037.053-.076.1.107-.137.017-.025c-.129.148-.262.29-.4.429l-1.153 1.163a7.173 7.173 0 0 0-.923.987 7.058 7.058 0 0 0-1.117 3.316c-.059.678-.023 1.372-.023 2.051v7.039a5.322 5.322 0 0 0 .81 2.717 5.385 5.385 0 0 0 4.5 2.485h14.968a.873.873 0 0 0 0-1.745" transform="translate(-28.17)" style="fill:#e8a422;stroke:transparent"/>
        <path data-name="Pfad 945" d="M58.669 60.135h1.978c.173.009-.015.033-.036-.008l.108.024a1.446 1.446 0 0 0 .157.049c-.025.021-.195-.1-.011 0 .032.017.063.035.093.054l.045.03q.113.081-.049-.039c0 .011.2.188.189.189s-.119-.18-.039-.049c.023.038.049.075.071.114.013.022.042.111.061.12q-.071-.176-.037-.082.014.039.025.078a1.075 1.075 0 0 0 .033.134c.046.1-.007-.22 0-.037v.752c.008.178-.008-.009.007.006l.009-.057a1.072 1.072 0 0 1-.027.115c-.033.175.011-.06.025-.045a1.078 1.078 0 0 1-.057.1q-.065.094 0 .006c.143-.087-.083.032-.052.04 0 0 .149-.1.033-.03l-.013.008-.116.072-2.415 1.5c-.134.083-.269.165-.4.25l-.067.041a2.264 2.264 0 0 0-.551.683l-.072.1c-.118.168.088-.105.005 0-.059.071-.117.143-.178.213a5.447 5.447 0 0 1-.475.478 1.247 1.247 0 0 1-.234.2c.018-.009.159-.117.032-.025l-.124.089a5.473 5.473 0 0 1-.543.334q-.134.072-.272.137a.517.517 0 0 1-.111.05l.1-.04-.113.045a5.53 5.53 0 0 1-.58.19q-.148.039-.3.071a1.061 1.061 0 0 1-.3.054c.127.024.136-.015.048-.007-.062.006-.123.013-.185.018q-.156.012-.312.016H30.26c-.755 0-1.52.034-2.275-.009a1.209 1.209 0 0 1-.319-.028c.146.058.116.018.043.006s-.125-.02-.188-.032a5.451 5.451 0 0 1-.613-.153q-.15-.047-.3-.1l-.071-.026c.134.049-.057-.025-.069-.031a5.512 5.512 0 0 1-.583-.31q-.121-.074-.238-.154c-.052-.036-.1-.073-.154-.11s-.135-.076.026.021a2.819 2.819 0 0 1-.5-.445c-.14-.141-.257-.324-.4-.456.17.153.109.142.056.073l-.122-.158a3.33 3.33 0 0 0-.6-.685c-.081-.06-.164-.116-.245-.174l-1.219-.865-1.07-.759-.084-.06c-.028-.019.081.051.071.052l-.045-.043q-.095-.107.019.032l-.033-.052q-.066-.128.008.042a1.114 1.114 0 0 0-.037-.118c-.067-.184-.006.181 0-.017V60.721c.007-.195-.055.194 0 .01.011-.035.017-.072.027-.107.055-.186.039-.014-.012 0a1.278 1.278 0 0 0 .132-.235c.089-.149-.109.092-.022.029a1.055 1.055 0 0 0 .092-.1.985.985 0 0 0 .079-.072l-.092.07a1.384 1.384 0 0 1 .282-.162q-.176.071-.082.037a1.092 1.092 0 0 0 .239-.064l-.121.015c.038 0 .075-.007.113-.008h2.016a.873.873 0 0 0 0-1.745h-1.713a2.9 2.9 0 0 0-1.083.149 2.521 2.521 0 0 0-1.473 1.487 3.566 3.566 0 0 0-.139 1.284 2.032 2.032 0 0 0 .734 1.7c.421.326.866.623 1.3.931l1.467 1.041-.313-.313.516.67A6.543 6.543 0 0 0 24.7 66.7a6.347 6.347 0 0 0 3.6 1.12h25.444a6.53 6.53 0 0 0 4.49-1.722 6.4 6.4 0 0 0 1.138-1.428l-.313.313 2.923-1.814a2.089 2.089 0 0 0 .938-1.147 3.783 3.783 0 0 0 .08-1.18 2.476 2.476 0 0 0-2.463-2.452c-.623-.006-1.246 0-1.869 0a.873.873 0 0 0 0 1.745" transform="translate(-17.287 -51.594)" style="fill:#e8a422;stroke:transparent"/>
        <path data-name="Pfad 946" d="m63.921 159.744.643 1.055c.081.134.16.269.245.4a3.564 3.564 0 0 0 3.149 1.662h2.61a.873.873 0 0 0 0-1.745h-2.526a4.707 4.707 0 0 1-.573-.022l.232.031a2.837 2.837 0 0 1-.7-.19l.208.088a2.842 2.842 0 0 1-.3-.152q-.073-.043-.144-.09c-.063-.042-.2-.177 0 .011-.073-.067-.152-.128-.223-.2q-.061-.06-.118-.125c-.05-.056-.148-.223 0 .01-.1-.163-.211-.322-.312-.488l-.688-1.128a.873.873 0 0 0-1.507.881" transform="translate(-56.379 -139.998)" style="fill:#e8a422;stroke:transparent"/>
        <path data-name="Pfad 947" d="m290.282 160.793-.688 1.128c-.1.165-.208.325-.312.488.148-.233.05-.066 0-.01s-.077.084-.118.124c-.071.071-.147.133-.223.2.218-.186.063-.05.005-.011s-.095.061-.144.09a2.849 2.849 0 0 1-.3.152l.208-.088a2.841 2.841 0 0 1-.7.19l.232-.031a9.512 9.512 0 0 1-1.143.022h-1.955a.873.873 0 0 0 0 1.745h2.839a3.719 3.719 0 0 0 1.534-.392 3.823 3.823 0 0 0 1.54-1.52l.734-1.2a.873.873 0 1 0-1.507-.881" transform="translate(-251.197 -141.711)" style="fill:#e8a422;stroke:transparent"/>
        <path data-name="Pfad 948" d="m133.227 217.816 1.82-3.734.258-.53-.753.432h9.923c.457 0 .916.014 1.373 0h.019l-.753-.432 2.037 3.74.286.524a.881.881 0 0 0 1.194.313.891.891 0 0 0 .313-1.194l-2.037-3.74-.286-.524a.872.872 0 0 0-.753-.432h-9.923c-.457 0-.916-.01-1.373 0h-.019a.863.863 0 0 0-.753.432l-1.82 3.734-.258.53a.873.873 0 1 0 1.507.881" transform="translate(-116.303 -187.543)" style="fill:#e8a422;stroke:transparent"/>
        <path data-name="Pfad 949" d="M166.133 185.123h7.858a.873.873 0 0 0 0-1.745h-7.858a.873.873 0 0 0 0 1.745" transform="translate(-146.033 -162.044)" style="fill:#e8a422;stroke:transparent"/>
        <path data-name="Pfad 950" d="M31.963 221.081v5.83a2.444 2.444 0 0 0 1.144 2 3.223 3.223 0 0 0 1.822.354h5.856a2.393 2.393 0 0 0 1.391-.418 2.454 2.454 0 0 0 1.051-1.981c.007-.629 0-1.258 0-1.886v-.207a.873.873 0 0 0-1.745 0v1.12a10.145 10.145 0 0 1-.013 1.175l.031-.232a1.667 1.667 0 0 1-.1.376l.088-.208a1.61 1.61 0 0 1-.143.269c-.047.071-.121.112.046-.055-.035.035-.066.076-.1.112-.01.01-.1.107-.112.1s.211-.15.055-.046a1.6 1.6 0 0 1-.269.143l.209-.088a1.671 1.671 0 0 1-.376.1l.232-.031a6.774 6.774 0 0 1-.786.013H35.1a8.134 8.134 0 0 1-.943-.013l.232.031a1.666 1.666 0 0 1-.376-.1l.208.088a1.615 1.615 0 0 1-.269-.143c-.071-.047-.112-.121.055.046-.035-.035-.076-.066-.112-.1-.01-.01-.107-.1-.1-.112s.15.211.046.055a1.61 1.61 0 0 1-.143-.269l.088.208a1.669 1.669 0 0 1-.1-.376l.031.232a6.081 6.081 0 0 1-.013-.707v-5.283a.873.873 0 0 0-1.745 0" transform="translate(-28.243 -194.589)" style="fill:#e8a422;stroke:transparent"/>
        <path data-name="Pfad 951" d="M293.8 221.081v5.146a7.272 7.272 0 0 1-.013.844l.031-.232a1.668 1.668 0 0 1-.1.376l.088-.208a1.609 1.609 0 0 1-.143.269c-.047.071-.121.112.046-.055-.036.035-.066.076-.1.112-.01.01-.1.107-.112.1s.211-.15.055-.046a1.609 1.609 0 0 1-.269.143l.208-.088a1.669 1.669 0 0 1-.376.1l.232-.031a6.772 6.772 0 0 1-.786.013h-5.139a8.134 8.134 0 0 1-.943-.013l.232.031a1.669 1.669 0 0 1-.376-.1l.208.088a1.608 1.608 0 0 1-.269-.143c-.071-.047-.112-.121.055.046-.035-.035-.076-.066-.112-.1-.01-.01-.107-.1-.1-.112s.15.211.046.055a1.621 1.621 0 0 1-.143-.269l.088.208a1.666 1.666 0 0 1-.1-.376l.031.232a10.122 10.122 0 0 1-.013-1.175v-1.12a.873.873 0 0 0-1.745 0v1.869a2.849 2.849 0 0 0 .3 1.38 2.429 2.429 0 0 0 1.921 1.233 10.819 10.819 0 0 0 1.137.011h4.533c.376 0 .764.028 1.139-.008a2.434 2.434 0 0 0 1.932-1.218 2.57 2.57 0 0 0 .306-1.254v-5.708a.873.873 0 0 0-1.745 0" transform="translate(-251.202 -194.589)" style="fill:#e8a422;stroke:transparent"/>
        <path data-name="Pfad 952" d="m1.311 314.69 2.544-1.09 1.8-.773c.323-.138.671-.256.981-.421a2.712 2.712 0 0 0 .3-.21l.8-.576a17.064 17.064 0 0 1 2.22-1.392q.4-.2.813-.384l.082-.035c.11-.048-.154.063-.043.018l.194-.079q.208-.082.419-.159a14.568 14.568 0 0 1 1.716-.5q.421-.1.848-.167c.137-.023.275-.041.413-.062-.26.041.009 0 .064-.006l.237-.026a14.564 14.564 0 0 1 1.764-.068q.451.01.9.048c.14.012.281.026.42.042.07.008.14.021.21.025-.249-.016 0 0 .068.011a10.638 10.638 0 0 1 1.736.4q.2.064.39.136l.193.074.109.044c.109.042-.2-.088-.018-.008a10.12 10.12 0 0 1 1.527.826q.173.114.341.234l.167.122c.122.09-.019-.014-.035-.029.03.026.062.049.093.073.331.263.664.679 1.114.679l-.617-.256a5.05 5.05 0 0 0 5.2.993c.443-.179.874-.388 1.308-.587l.531-.243.03-.014.094-.042c-.17.1-.129.053-.067.029.188-.072.378-.139.572-.192a5.276 5.276 0 0 1 .532-.116c.066-.011.234-.014-.038 0 .032 0 .065-.008.1-.011.113-.012.227-.021.34-.026q.242-.01.485 0 .144.007.289.022c.031 0 .064.01.1.011-.288-.013-.067-.009.006 0a5.31 5.31 0 0 1 1.04.287l.111.045c-.249-.089-.089-.037-.032-.011q.109.05.216.105a5.269 5.269 0 0 1 .5.293q.1.067.2.138c.055.04.156.152-.022-.019.035.033.077.061.113.092a5.251 5.251 0 0 1 .4.366c.126.13.232.284.36.41-.168-.164-.057-.075-.015-.017l.088.124q.086.126.166.256a1.608 1.608 0 0 0 .189.265s-.19-.214-.09-.09-.054-.188-.016-.03c.011.045.024.093.037.137.038.131-.012-.077-.009-.093a1.025 1.025 0 0 0 .007.139c0 .044-.011.095-.007.138-.02-.222.023-.145 0-.051-.011.045-.026.088-.039.132-.047.164.1-.186.016-.039-.039.065-.088.131-.122.2.1-.187.08-.1.014-.034-.028.028-.058.053-.087.081-.081.077.189-.118.041-.035-.027.015-.059.036-.086.052-1.271.736-2.566 1.434-3.849 2.148q-.478.266-.974.5l-.29.129c-.2.088.178-.07-.025.01l-.176.071q-.324.128-.654.239a13.84 13.84 0 0 1-1.4.392q-.34.076-.683.135-.156.027-.313.05c-.049.007-.257.054-.019 0-.061.013-.127.016-.189.023a21.986 21.986 0 0 1-2.53.091h-5.39a.873.873 0 0 0 0 1.745h4.878c.675 0 1.354.016 2.029-.012a14.938 14.938 0 0 0 5.932-1.507c.747-.365 1.466-.794 2.192-1.2l2.275-1.27a2.3 2.3 0 0 0 1.19-1.8 2.145 2.145 0 0 0-.054-.717 2.293 2.293 0 0 0-.152-.413c-.02-.045-.038-.089-.062-.133a.916.916 0 0 0-.16-.22l.11.132c-.028 0-.142-.227-.163-.258q-.077-.115-.161-.226c-.15-.2-.3-.4-.471-.578a6.2 6.2 0 0 0-4.441-1.959 6.281 6.281 0 0 0-2.562.536c-.386.166-.766.348-1.149.523l-.486.222-.013.006c-.141.066.041-.025.054-.021-.051-.014-.229.087-.285.1a5.143 5.143 0 0 1-.609.149c-.192.038.212-.019.018 0l-.161.015q-.148.011-.3.011t-.3-.01c-.053 0-.107-.01-.16-.014-.183-.016.188.034.02 0a4.968 4.968 0 0 1-.6-.144 1.1 1.1 0 0 0-.278-.1l.109.047-.1-.044q-.074-.034-.146-.071a4.136 4.136 0 0 1-.535-.327c-.139-.1.029-.006.023.02a1.267 1.267 0 0 0-.128-.106 1.041 1.041 0 0 0-.7-.329l.617.255a11.347 11.347 0 0 0-3.259-2.058 12.075 12.075 0 0 0-3.642-.83 15.453 15.453 0 0 0-7.341 1.2 14.886 14.886 0 0 0-2.9 1.629c-.442.319-.88.644-1.326.957a3.592 3.592 0 0 1-.658.3l-1.7.726c-1 .427-2 .833-2.991 1.282l-.057.025a.871.871 0 0 0-.4.521.891.891 0 0 0 .088.672.88.88 0 0 0 .521.4 1.023 1.023 0 0 0 .672-.088" transform="translate(0 -271.292)" style="fill:#e8a422;stroke:transparent"/>
        <path data-name="Pfad 953" d="m12.8 318.268 4-1.952.217-.106.208-.1.274-.124c.16-.071.063-.028.028-.013l.238-.1a12.612 12.612 0 0 1 2.583-.7c.056-.009.112-.016.168-.026.1-.018 0 0-.022 0 .112-.015.225-.028.337-.039q.359-.037.72-.053a12.6 12.6 0 0 1 1.318.009q.341.02.68.059l.17.02c-.018 0-.123-.019-.02 0 .127.02.254.039.381.061.209.037.417.08.624.126q2.308.519 4.616 1.042l1.916.433a16.694 16.694 0 0 0 4.157.422 16.266 16.266 0 0 0 9.019-3.054q.987-.715 1.971-1.433l4.226-3.073 4.822-3.507 3.819-2.778 1.014-.737.194-.141a2.533 2.533 0 0 0 1.025-2.814c-.159-.525-.522-1.216-1.15-1.216l.617.256a6.088 6.088 0 0 0-4.805-2.149 6.2 6.2 0 0 0-2.685.71 7.513 7.513 0 0 0-1.1.751l-4.7 3.653-1.622 1.26a.874.874 0 0 0 0 1.234.9.9 0 0 0 1.234 0l3.928-3.052 2.177-1.692.268-.208.067-.052c.076-.059 0 .045-.093.072a1.114 1.114 0 0 0 .225-.161q.128-.086.26-.165c.184-.11.376-.2.57-.293-.2.093.08-.028.132-.047q.14-.05.283-.092a5.169 5.169 0 0 1 .608-.138c.031-.005.173-.023.045-.008s.084-.007.111-.01q.178-.016.357-.019a6.059 6.059 0 0 1 .648.028c.164.014-.017 0-.039-.007a1.012 1.012 0 0 0 .192.031q.16.029.318.068a5.217 5.217 0 0 1 .652.206c.049.019.187.086 0 0l.149.069q.163.079.321.168a6 6 0 0 1 .555.365c-.169-.123.087.076.136.119q.128.113.248.234c.279.282.487.615.941.615l-.617-.256c-.13-.164.025.061.049.1.073.121-.03-.022-.007-.031l.032.091c.01.03.074.3.047.163-.023-.117 0-.018 0 .01v.198c0-.126 0 0-.011.039s-.027.187-.062.212c.044-.031.071-.134.012-.034-.022.037-.04.075-.062.111s-.048.071-.071.107c.059-.091.063-.077-.009 0-.052.055-.179.161-.052.063l-.016.011-.077.056-.817.594-3.538 2.573-4.724 3.435-4.355 3.167-2.424 1.763a16.174 16.174 0 0 1-2.284 1.4q-.269.134-.542.258l-.256.113c-.127.056.116-.046-.012 0l-.185.075q-.574.227-1.165.408t-1.185.316q-.31.068-.624.124l-.274.046-.157.024c-.035.005-.22.029-.044.007a15.8 15.8 0 0 1-2.466.118q-.642-.021-1.28-.1l-.16-.02c.015 0 .135.02.032 0s-.213-.031-.319-.049q-.32-.052-.637-.118c-.507-.1-1.012-.226-1.517-.34l-5.064-1.144a15.343 15.343 0 0 0-3.3-.421 13.653 13.653 0 0 0-5.453 1.13c-.646.277-1.273.6-1.9.911l-2.446 1.194-.465.227a.877.877 0 0 0-.313 1.194.9.9 0 0 0 1.194.313" transform="translate(-10.151 -262.072)" style="fill:#e8a422;stroke:transparent"/>
    </g>
</svg>
