<svg xmlns="http://www.w3.org/2000/svg" width="19.675" height="19.702" viewBox="0 0 19.675 19.702">
    <path data-name="Pfad 936" d="m1774.914 1789.961 2.1 2.1 3.186-3.186-.232-.232a.493.493 0 0 1 .011-.7l.551-.551-1.523-1.523zm5.568-5.568 1.523 1.523.551-.551a.493.493 0 0 1 .7-.011l.232.232 3.383-3.383-2.1-2.1z" transform="translate(-1771.225 -1776.39)" style="fill:#e8a422"/>
    <path data-name="Pfad 937" d="M3552.054 1020.482a3.487 3.487 0 0 0-1.94-.087 3.633 3.633 0 0 0-2.781 3.455 3.379 3.379 0 0 0 3.45 3.45 3.631 3.631 0 0 0 3.455-2.781 3.485 3.485 0 0 0-.087-1.939l-2.164 2.164a.613.613 0 0 1-.85-.1l-1.147-1.147a.613.613 0 0 1-.1-.85z" transform="translate(-3534.979 -1020.298)" style="fill:#e8a422"/>
    <path data-name="Pfad 938" d="M1026.269 3569.334a3.451 3.451 0 1 0 1.011 2.44 3.451 3.451 0 0 0-1.011-2.44m-.612 1.646.026 1.525-1.06 1.1-1.525.026-1.1-1.06-.026-1.525 1.06-1.1 1.525-.026z" transform="translate(-1020.379 -3555.866)" style="fill:#e8a422"/>
    <path data-name="Pfad 939" d="m3183.14 3229.922 1.239-1.24a1.208 1.208 0 0 1 1.713 0l4.865 4.864a1.209 1.209 0 0 1 0 1.713l-1.239 1.239a1.209 1.209 0 0 1-1.713 0l-4.864-4.864a1.208 1.208 0 0 1 0-1.713" transform="translate(-3171.637 -3217.152)" style="fill:#e8a422"/>
    <path data-name="Pfad 940" d="m1129.164 1173.785-.969.967 1.827 2.426 2.1.533-.53-2.1z" transform="translate(-1127.668 -1173.035)" style="fill:#e8a422"/>
    <path data-name="Pfad 941" d="m2879.96 2927.675 2.171-2.171a.415.415 0 0 1 .588-.01l.316.316a.415.415 0 0 1-.009.588l-2.171 2.171a.414.414 0 0 1-.588.01l-.316-.316a.414.414 0 0 1 .009-.588" transform="translate(-2870.166 -2915.684)" style="fill:#e8a422"/>
    <path data-name="Pfad 942" d="m3057.371 3103.739.827-.826c.247-.247.551-.341.681-.21l1 1c.131.131.037.435-.21.682l-.826.826c-.247.247-.551.341-.681.21l-1-1c-.131-.131-.037-.434.21-.682" transform="translate(-3046.568 -3092.083)" style="fill:#e8a422"/>
    <path data-name="Rechteck 649" transform="rotate(-45.001 6.713 -1.824)" style="fill:#e8a422" d="M0 0h1.039v10.628H0z"/>
</svg>
