<svg xmlns="http://www.w3.org/2000/svg" width="11.104" height="11.104" viewBox="0 0 11.104 11.104">
    <path d="M.694 1.388A1.388 1.388 0 0 1 2.082 0h3.47A1.389 1.389 0 0 1 6.94 1.388v4.164h.174a1.909 1.909 0 0 1 1.908 1.909v.694a.521.521 0 0 0 1.041 0V4.8a1.35 1.35 0 0 1-1.041-1.33V2.082l-.694-.694a.491.491 0 0 1 .694-.694L10.7 2.371a1.384 1.384 0 0 1 .406.98v4.8a1.562 1.562 0 0 1-3.123 0v-.69a.884.884 0 0 0-.868-.887H6.94v3.142a.694.694 0 0 1 0 1.388H.694a.694.694 0 0 1 0-1.388zm1.388 2.429a.348.348 0 0 0 .347.347h2.776a.348.348 0 0 0 .347-.347V1.735a.347.347 0 0 0-.347-.347H2.429a.347.347 0 0 0-.347.347z" style="fill:#919191"/>
</svg>
