<svg xmlns="http://www.w3.org/2000/svg" width="20.221" height="20.375" viewBox="0 0 20.221 20.375">
    <path data-name="Pfad 1035" d="m81.521 94.921.33.165a8.621 8.621 0 0 0 4.456 1.214 8.811 8.811 0 0 0 6.217-15.033 8.756 8.756 0 0 0-14.99 6.148v.113a9.036 9.036 0 0 0 1.322 4.626l.22.33-.876 3.246 3.326-.81z" transform="translate(-76.196 -77.299)" style="fill:#30c675"/>
    <path data-name="Pfad 1036" d="M17.3 2.967a9.916 9.916 0 0 0-7.121-2.973h-.017A10.1 10.1 0 0 0 .107 10.049v.077a10.64 10.64 0 0 0 1.322 5.011L0 20.369l5.336-1.377a9.819 9.819 0 0 0 4.81 1.208 10.175 10.175 0 0 0 10.072-10.129 10 10 0 0 0-2.913-7.1M10.179 18.5a8.176 8.176 0 0 1-4.235-1.16l-.33-.165L2.436 18l.826-3.139-.22-.33a8.354 8.354 0 1 1 11.509 2.7 8.019 8.019 0 0 1-4.344 1.269m4.84-6.112-.606-.275s-.881-.385-1.432-.661c-.055 0-.11-.055-.165-.055a.8.8 0 0 0-.385.11c-.117.069-.055.055-.826.936a.3.3 0 0 1-.275.165H11.3a.42.42 0 0 1-.22-.11l-.275-.11a5.346 5.346 0 0 1-1.6-1.046c-.11-.11-.275-.22-.385-.33a6.161 6.161 0 0 1-1.042-1.326l-.055-.11a.8.8 0 0 1-.11-.22.413.413 0 0 1 .055-.275 3.44 3.44 0 0 1 .385-.441c.165-.165.165-.275.275-.385a.678.678 0 0 0 .11-.551 21.5 21.5 0 0 0-.881-2.093.64.64 0 0 0-.385-.275h-.605c-.11 0-.22.055-.33.055l-.055.055c-.11.055-.22.165-.33.22s-.165.22-.275.33A2.808 2.808 0 0 0 4.97 7.7a3.261 3.261 0 0 0 .275 1.27l.055.165a9.179 9.179 0 0 0 2.038 2.808l.22.22A3.33 3.33 0 0 1 8 12.6a9.832 9.832 0 0 0 3.958 2.1c.165.055.385.055.551.11h.551a2.038 2.038 0 0 0 .826-.22 2.386 2.386 0 0 0 .385-.22l.11-.11c.11-.11.22-.165.33-.275a1.456 1.456 0 0 0 .275-.33 3.158 3.158 0 0 0 .22-.771v-.385a.692.692 0 0 0-.165-.11" transform="translate(.003 .006)" style="fill:#fff"/>
</svg>
