<svg xmlns="http://www.w3.org/2000/svg" width="17.107" height="17.184" viewBox="0 0 17.107 17.184">
    <path d="M14.614 2.5A8.518 8.518 0 0 0 1.208 12.771L0 17.184 4.515 16a8.514 8.514 0 0 0 4.07 1.036A8.518 8.518 0 0 0 14.614 2.5M8.589 15.6a7.07 7.07 0 0 1-3.6-.986l-.259-.153-2.679.7.715-2.612-.168-.268a7.08 7.08 0 1 1 6 3.317m3.883-5.3c-.213-.106-1.259-.621-1.454-.692s-.337-.106-.479.107-.55.692-.674.834-.248.16-.461.053a5.813 5.813 0 0 1-1.72-1.057 6.413 6.413 0 0 1-1.184-1.474c-.124-.213-.013-.328.093-.434s.213-.248.319-.373a1.451 1.451 0 0 0 .213-.355.392.392 0 0 0-.018-.373c-.053-.106-.479-1.154-.656-1.58s-.348-.354-.479-.364-.266-.007-.408-.007a.782.782 0 0 0-.568.266 2.386 2.386 0 0 0-.745 1.775 4.138 4.138 0 0 0 .869 2.2 9.486 9.486 0 0 0 3.636 3.213 12.258 12.258 0 0 0 1.213.448 2.919 2.919 0 0 0 1.341.084 2.192 2.192 0 0 0 1.437-1.012 1.778 1.778 0 0 0 .124-1.012c-.053-.089-.2-.142-.408-.249" style="fill:#e8a422;fill-rule:evenodd"/>
</svg>
