<svg xmlns="http://www.w3.org/2000/svg" width="31.181" height="21.924" viewBox="0 0 31.181 21.924">
    <path d="M45.462 67.43a3.918 3.918 0 0 0-2.757-2.775C40.274 64 30.523 64 30.523 64s-9.75 0-12.182.656a3.918 3.918 0 0 0-2.757 2.775 44.113 44.113 0 0 0 0 15.107 3.86 3.86 0 0 0 2.757 2.73c2.432.656 12.182.656 12.182.656s9.75 0 12.182-.656a3.86 3.86 0 0 0 2.757-2.73 44.113 44.113 0 0 0 0-15.107zM27.334 79.62v-9.272l8.149 4.636-8.149 4.636z" transform="translate(-14.933 -64)" style="fill:#d0121e"/>
</svg>
