<svg xmlns="http://www.w3.org/2000/svg" width="200.707" height="39.648" viewBox="0 0 200.707 39.648">
    <defs>
        <clipPath id="l8dma4jgea">
            <path data-name="Rechteck 896" style="fill:#fff" d="M0 0h200.707v39.648H0z"/>
        </clipPath>
    </defs>
    <g data-name="Gruppe 1782" style="clip-path:url(#l8dma4jgea)">
        <path data-name="Pfad 976" d="M324.476 14.177a.328.328 0 0 0-.081.267 1.547 1.547 0 0 1 .034.529c.008 1.739-.029 3.48.041 5.216a3.5 3.5 0 0 0 1.91 3.019 3.856 3.856 0 0 0 2.041.333 3.382 3.382 0 0 0 2.336-.9A4.122 4.122 0 0 0 332 19.563c.039-1.67 0-3.342 0-5.013 0-.259 0-.441-.364-.416-.3.021-.447.039-.452.414-.024 1.926.1 3.854-.066 5.779a2.97 2.97 0 0 1-5.908-.04c-.106-1.805-.049-3.614-.038-5.422 0-.752-.011-.752-.695-.69z" transform="translate(-217.627 -9.481)" style="fill:#fff"/>
        <path data-name="Pfad 977" d="M8.159 18.6a8.128 8.128 0 0 1 .712-3.688 10.067 10.067 0 0 1 3.715-4.546 4.486 4.486 0 0 0 1.181-1.006 8.83 8.83 0 0 1 2.04-1.977 7.361 7.361 0 0 1 4.319-1.556 1.15 1.15 0 0 1 1.132.835 1.668 1.668 0 0 1-.289 1.438c-.382.679-.395.672.331 1.02.036.017.061.061.1.071a9.866 9.866 0 0 1 3.781 2.209c.492.427.487.432.859-.109.093-.136.2-.266.277-.408a1.289 1.289 0 0 1 1.277-.777 1.4 1.4 0 0 1 1.258 1.054 9.618 9.618 0 0 1 .548 2.88 7.8 7.8 0 0 1-.64 3.477 8.061 8.061 0 0 0-.582 2.47 9.6 9.6 0 0 1-4.846 7.341 8.562 8.562 0 0 1-4.56 1.423 2 2 0 0 0-2.132 1.142c-.036.072-.091.134-.129.2-.435.8-.878 1.606-1.34 2.385-.576.973-1.067 2-1.728 2.926a1.048 1.048 0 0 0-.173 1.029 1.5 1.5 0 0 0 1.6 1.012c1.769-.013 3.537-.011 5.306-.017.6 0 1.207.009 1.808-.026a1.315 1.315 0 0 0 1.253-1.3 7.1 7.1 0 0 1 .095-1.01A4.9 4.9 0 0 1 25.352 32a4.1 4.1 0 0 1 2.338-.86c.332 0 .66 0 .992.007a3.414 3.414 0 0 1 1.634.42 6.291 6.291 0 0 0 .93.428.764.764 0 0 0 .924-.189 6.657 6.657 0 0 0 .7-.962c.621-.994 1.082-2.075 1.709-3.067.545-.861 1.031-1.759 1.562-2.628a1.485 1.485 0 0 0-.375-2.088 5.753 5.753 0 0 1-1.966-2.115 4.611 4.611 0 0 1-.118-4.271 5.824 5.824 0 0 1 2.072-2.339 1.26 1.26 0 0 0 .684-1.044 2.219 2.219 0 0 0-.343-1.1c-1.038-1.848-2.158-3.649-3.185-5.5-.75-1.354-1.188-1.453-2.591-.836a4.664 4.664 0 0 1-4.251-.037 4.943 4.943 0 0 1-2.76-4.039 6.139 6.139 0 0 0-.09-.642A1.306 1.306 0 0 0 21.973.047a13.764 13.764 0 0 0-1.89-.023Q17.41 0 14.736.016a1.391 1.391 0 0 0-1.542 1.534 4.336 4.336 0 0 1-.364 1.644 4.92 4.92 0 0 1-3.9 3.061 4.729 4.729 0 0 1-2.943-.423 1.534 1.534 0 0 0-2.307.592C2.608 8.349 1.49 10.246.419 12.17c-.666 1.2-.571 1.531.528 2.365l.066.049a4.855 4.855 0 0 1 2.065 5.058 4.711 4.711 0 0 1-2.319 3.31 1.412 1.412 0 0 0-.582 1.895C1.319 27 2.59 29.075 3.815 31.178a2.508 2.508 0 0 0 .385.479 1.045 1.045 0 0 0 1.688-.125c.237-.334.451-.686.659-1.039 1.034-1.756 1.888-3.613 3.018-5.315a1.147 1.147 0 0 0 .015-1.354A9.162 9.162 0 0 1 8.159 18.6" style="fill:#fffeff"/>
        <path data-name="Pfad 979" d="M180.322 69.9h.007c0 2.3.006 4.606-.007 6.908 0 .336.128.438.433.43.287-.007.576 0 .863.014.685.029.7.027.7-.654q.007-6.045.01-12.09c0-.383.027-.767.044-1.15.029-.646-.089-.771-.719-.783a6.793 6.793 0 0 1-.942-.051c-.273-.044-.355.081-.367.3-.016.328-.021.658-.021.987v6.086" transform="translate(-120.974 -41.938)" style="fill:#fffeff"/>
        <path data-name="Pfad 980" d="M570.794 18.512h.025c0 1.439 0 2.877.007 4.316 0 .169-.083.427.276.424.271 0 .46 0 .482-.347.01-.147.03-.3.031-.446.008-1.809.01-3.618.018-5.427a2.553 2.553 0 0 1 3.344-2.482 2.3 2.3 0 0 1 .77.334 2.582 2.582 0 0 1 1.046 2.062c.05 1.117.069 2.235.086 3.353.012.849 0 1.7 0 2.549 0 .23.025.392.323.4.264.011.371-.065.366-.332 0-.217.038-.435.04-.653.009-1.741 0-3.481.022-5.222a2.486 2.486 0 0 1 2.127-2.568 2.39 2.39 0 0 1 2.916 1.673 6.176 6.176 0 0 1 .206 1.758c.007 1.59 0 3.18 0 4.77 0 .123 0 .247.008.37.023.292.256.177.411.2.111.015.265.063.258-.147-.012-.313.09-.612.087-.928-.015-1.6-.007-3.207 0-4.811a4.623 4.623 0 0 0-.133-1.087 3.169 3.169 0 0 0-3.276-2.439 3.261 3.261 0 0 0-2.776 1.456c-.184.249-.27.263-.459-.006-1.033-1.463-2.48-1.786-4.327-1.167a1.955 1.955 0 0 0-.771.575.18.18 0 0 1-.213.067c-.085-.033-.044-.116-.049-.178a1.259 1.259 0 0 1-.005-.246c.041-.362-.184-.386-.459-.4s-.379.088-.376.38c.014 1.4.006 2.8.006 4.194" transform="translate(-382.93 -9.27)" style="fill:#fff"/>
        <path data-name="Pfad 981" d="M202.084 14.165c-.165-.335.038-.653.034-.985-.015-1.508-.036-3.016 0-4.523a3.509 3.509 0 0 1 1.482-2.793 3.176 3.176 0 0 1 1.982-.4 2.288 2.288 0 0 1 1.966 1.1 4.213 4.213 0 0 1 .626 2.285c.084 1.051-.047 2.106.012 3.161.036.629 0 1.261.01 1.891 0 .1-.059.218.089.281a.434.434 0 0 0 .652-.408 49.085 49.085 0 0 0-.093-6.067 3.28 3.28 0 0 0-2.259-2.79 3.622 3.622 0 0 0-4.171 1.248c-.056.071-.109.2-.209.168-.127-.038-.093-.174-.093-.282V3.584c0-.932-.016-1.864.006-2.8.01-.4-.285-.453-.526-.466-.267-.013-.2.248-.19.429V.87l-.011 12.706c0 .647.011.647.694.587" transform="translate(-135.107 -.214)" style="fill:#fff"/>
        <path data-name="Pfad 982" d="M134.07 7.919h-.005c0 1.986.008 3.973-.008 5.959 0 .326.09.405.411.413.417.011.423-.229.423-.517 0-1.863.01-3.726-.011-5.588 0-.375.116-.448.465-.447 1.452 0 2.9-.034 4.357-.033.288 0 .3-.123.3-.341s0-.354-.294-.339a11.544 11.544 0 0 1-1.186-.039c-1.112-.055-2.224.063-3.339-.011-.372-.025-.254-.234-.256-.381-.018-1.328 0-2.657-.033-3.985s.132-1.356 1.423-1.376c1.4-.021 2.794-.022 4.19-.03.2 0 .4.017.4-.273s.023-.433-.4-.419c-1.175.04-2.353-.021-3.53-.053a11.263 11.263 0 0 0-1.541.081 1.47 1.47 0 0 0-1.361 1.5c-.008 1.959 0 3.918 0 5.877" transform="translate(-89.936 -.306)" style="fill:#fff"/>
        <path data-name="Pfad 983" d="M460.624 18.706v4.192c0 .24.057.3.313.33.4.04.493-.124.491-.474-.008-1.4-.025-2.8.005-4.192a6.314 6.314 0 0 1 .245-2.326 2.759 2.759 0 0 1 1.794-1.675 8.495 8.495 0 0 1 1.295-.067 2.6 2.6 0 0 1 2.453 1.84 8.012 8.012 0 0 1 .213 2.242c.1 1.363.029 2.738.03 4.108a1.98 1.98 0 0 0 .011.328c.051.29.292.174.463.2.2.035.177-.1.185-.23.023-.351.073-.7.075-1.052.009-1.4.017-2.8 0-4.193a4.4 4.4 0 0 0-.151-1.273 3.63 3.63 0 0 0-1.92-2.359 4.513 4.513 0 0 0-1.359-.3 3.408 3.408 0 0 0-2.759.757c-.177.147-.31.511-.56.378-.191-.1-.052-.449-.066-.686-.009-.152.024-.309-.165-.375a.518.518 0 0 0-.541.042.3.3 0 0 0-.075.429.658.658 0 0 1 .028.281V18.7" transform="translate(-308.967 -9.239)" style="fill:#fff"/>
        <path data-name="Pfad 984" d="M262.283 23.455v.01c.891 0 1.784-.026 2.673.012.411.017.422-.224.446-.487.033-.361-.229-.337-.47-.336q-2.324.012-4.647.02a4.325 4.325 0 0 1-.656-.039c-.189-.029-.308-.113-.135-.324s.312-.449.485-.66c1.333-1.622 2.675-3.237 4-4.863a7.609 7.609 0 0 0 1-1.334c.267-.53.072-1.052-.424-1.142a6.712 6.712 0 0 0-1.1-.142c-1.371-.018-2.742 0-4.113-.019-.313 0-.28.172-.274.367s-.066.415.281.4c.559-.026 1.118-.036 1.677-.05.954-.024 1.909.019 2.864.035.4.007.48.159.272.5a1.965 1.965 0 0 1-.2.261c-.526.609-1.085 1.192-1.575 1.829-.833 1.082-1.718 2.12-2.579 3.179a8.374 8.374 0 0 0-1.142 1.55.761.761 0 0 0-.03.661.942.942 0 0 0 .932.564c.9.024 1.809.008 2.714.008" transform="translate(-173.473 -9.494)" style="fill:#fff"/>
        <path data-name="Pfad 985" d="M395.426 22.543a6.456 6.456 0 0 1 1.043-1.476 252.837 252.837 0 0 0 4.19-5.056 2.073 2.073 0 0 0 .325-.472c.262-.637.158-1.083-.544-1.269a2.957 2.957 0 0 0-.721-.1c-1.412-.013-2.824.007-4.235-.03-.416-.011-.436.169-.41.475.027.326.268.286.478.286 1.475 0 2.949-.13 4.425 0 .367.032.448.134.269.447a2.972 2.972 0 0 1-.37.489c-.719.806-1.4 1.643-2.1 2.468-.652.773-1.271 1.577-1.91 2.365a7.6 7.6 0 0 0-1.12 1.505c-.117.252-.259.477-.029.771a1.061 1.061 0 0 0 1.024.515 3.9 3.9 0 0 1 .493-.006q2.426 0 4.852.005c.2 0 .38-.01.326-.276-.039-.193.163-.538-.237-.533-1.41.018-2.82-.055-4.229.047a3.076 3.076 0 0 1-1.521-.158" transform="translate(-264.725 -9.489)" style="fill:#fff"/>
        <path data-name="Pfad 986" d="M538.056 17.144c0-.89-.007-1.78 0-2.669 0-.251-.083-.343-.332-.325-.216.016-.411 0-.4.317.047 1.943-.113 3.893.082 5.828a3.591 3.591 0 0 0 1.829 2.876 4.063 4.063 0 0 0 2.867.288 3.334 3.334 0 0 0 2.62-2.746 12.569 12.569 0 0 0 .162-1.983 42.508 42.508 0 0 0-.006-4.3c-.011-.372-.284-.24-.478-.269-.216-.033-.271.056-.274.272-.022 1.871-.006 3.742-.051 5.614a2.968 2.968 0 0 1-3.7 2.882 2.887 2.887 0 0 1-2.26-2.662c-.069-1.042 0-2.082-.058-3.122" transform="translate(-360.468 -9.491)" style="fill:#fff"/>
        <path data-name="Pfad 987" d="M512.808 18.779v.863c0 1.15.006 2.3.017 3.451 0 .192-.03.423.307.4.246-.015.417 0 .437-.342.069-1.15.012-2.3.035-3.448a8.336 8.336 0 0 1 .189-2.26c.517-1.719 1.679-2.9 3.742-2.44a.268.268 0 0 0 .36-.259c.027-.2.036-.463-.223-.467-.289 0-.557-.107-.843-.1a3.646 3.646 0 0 0-2.977 1.505c-.07.091-.138.2-.258.134-.1-.053-.029-.166-.023-.258.024-.341.023-.683.046-1.024s-.192-.345-.449-.355c-.287-.012-.373.078-.369.371.016 1.41.007 2.821.007 4.232" transform="translate(-344.027 -9.51)" style="fill:#fff"/>
        <path data-name="Pfad 988" d="M494.116 11.7c0 1.576-.015 3.152.005 4.727.015 1.146.568 1.6 1.622 1.659.5.029.578-.085.43-.556-.088-.279-.31-.166-.48-.173a.8.8 0 0 1-.827-.709c0-2.246 0-4.492-.015-6.738 0-.3.064-.4.378-.389.588.028 1.179 0 1.767.02.311.012.409-.126.426-.407.02-.331-.188-.34-.424-.34-.562 0-1.124-.023-1.685 0-.309.011-.443-.054-.429-.4.024-.629 0-1.26-.01-1.89 0-.132.038-.313-.15-.329a.966.966 0 0 0-.6.047c-.225.134 0 .285-.006.429v5.056" transform="translate(-331.428 -4.123)" style="fill:#fff"/>
        <path data-name="Pfad 989" d="M235.552 15.811c0-.42-.017-.838.006-1.254.015-.278-.055-.4-.356-.4-.275 0-.4.083-.4.374q.01 4.274.009 8.549c0 .248.044.4.366.4s.379-.086.388-.387a40.609 40.609 0 0 1 .14-5.27c.236-1.5 1.555-3.373 3.74-2.842.152.037.425.122.452-.182.021-.23.046-.486-.3-.553a3.448 3.448 0 0 0-3.216.809c-.264.248-.535.49-.827.758" transform="translate(-157.523 -9.494)" style="fill:#fff"/>
        <path data-name="Pfad 990" d="M8.159 18.6a9.162 9.162 0 0 0 1.423 5.222 1.147 1.147 0 0 1-.015 1.354c-1.13 1.7-1.984 3.559-3.018 5.315-.208.353-.422.7-.659 1.039a1.045 1.045 0 0 1-1.688.125 2.508 2.508 0 0 1-.385-.479c-1.226-2.1-2.5-4.18-3.638-6.331a1.412 1.412 0 0 1 .582-1.895 4.711 4.711 0 0 0 2.319-3.31 4.855 4.855 0 0 0-2.065-5.058l-.066-.049C-.153 13.7-.247 13.366.419 12.17c1.071-1.924 2.19-3.822 3.258-5.747a1.534 1.534 0 0 1 2.307-.592 4.729 4.729 0 0 0 2.943.423 4.92 4.92 0 0 0 3.9-3.061 4.336 4.336 0 0 0 .364-1.644A1.391 1.391 0 0 1 14.736.016Q17.41 0 20.083.024a13.764 13.764 0 0 1 1.889.023 1.306 1.306 0 0 1 1.249 1.085 6.139 6.139 0 0 1 .09.642 4.943 4.943 0 0 0 2.76 4.039 4.664 4.664 0 0 0 4.251.037c1.4-.617 1.842-.518 2.591.836 1.027 1.856 2.147 3.657 3.185 5.5a2.219 2.219 0 0 1 .343 1.1 1.26 1.26 0 0 1-.684 1.044 5.824 5.824 0 0 0-2.072 2.339 4.611 4.611 0 0 0 .118 4.271 5.753 5.753 0 0 0 1.962 2.119 1.485 1.485 0 0 1 .375 2.088c-.531.87-1.017 1.767-1.562 2.628-.627.992-1.088 2.073-1.709 3.067a6.657 6.657 0 0 1-.7.962.764.764 0 0 1-.924.189 6.291 6.291 0 0 1-.93-.428 3.414 3.414 0 0 0-1.634-.42c-.333-.011-.66-.011-.992-.007a4.1 4.1 0 0 0-2.338.86 4.9 4.9 0 0 0-2.018 3.102 7.1 7.1 0 0 0-.095 1.01 1.315 1.315 0 0 1-1.253 1.3c-.6.035-1.205.024-1.808.026-1.769.007-3.537 0-5.306.017a1.5 1.5 0 0 1-1.6-1.012 1.048 1.048 0 0 1 .173-1.029c.661-.926 1.153-1.953 1.728-2.926.461-.78.9-1.584 1.34-2.385.039-.071.093-.133.129-.2a2 2 0 0 1 2.132-1.142 8.562 8.562 0 0 0 4.56-1.423 9.6 9.6 0 0 0 4.846-7.341 8.061 8.061 0 0 1 .582-2.47 7.8 7.8 0 0 0 .64-3.477 9.618 9.618 0 0 0-.548-2.882 1.4 1.4 0 0 0-1.26-1.066 1.289 1.289 0 0 0-1.277.777c-.081.143-.184.273-.277.408-.372.541-.367.535-.859.109a9.866 9.866 0 0 0-3.78-2.203c-.036-.01-.062-.054-.1-.071-.726-.348-.713-.341-.331-1.02a1.668 1.668 0 0 0 .289-1.437 1.15 1.15 0 0 0-1.132-.835 7.361 7.361 0 0 0-4.319 1.556 8.83 8.83 0 0 0-2.04 1.977 4.486 4.486 0 0 1-1.181 1.006 10.067 10.067 0 0 0-3.715 4.546 8.128 8.128 0 0 0-.712 3.687" style="fill:#fff"/>
        <path data-name="Pfad 992" d="M144.981 69.495a15.447 15.447 0 0 1-.019 1.742 8.208 8.208 0 0 1-.306.92 5.733 5.733 0 0 1-1.856 3.055 7.327 7.327 0 0 1-8.845.721 8.456 8.456 0 0 1-1.2-.913 5.591 5.591 0 0 1-1.7-3.3 10.382 10.382 0 0 1 .445-5.881 6.344 6.344 0 0 1 3.9-3.485 6.574 6.574 0 0 1 2.616-.436 6.618 6.618 0 0 1 6.888 5.861 6.939 6.939 0 0 1 .077 1.718m-2.043-.141a7.912 7.912 0 0 0-.086-1.516 4.106 4.106 0 0 0-1.46-2.756 5.583 5.583 0 0 0-5.358-.835 4.114 4.114 0 0 0-2.866 2.943 8.968 8.968 0 0 0-.163 3.74 4.52 4.52 0 0 0 1.14 2.644c.124.123.29.206.407.333a3.591 3.591 0 0 0 1.925 1.009 8.689 8.689 0 0 0 2.17.1 4.532 4.532 0 0 0 3.993-2.988 10.644 10.644 0 0 0 .3-2.673" transform="translate(-87.778 -41.533)" style="fill:#fbb444"/>
        <path data-name="Pfad 993" d="M193.07 83.872v-5.1c0-1.141.01-2.282-.006-3.424 0-.345.169-.472.449-.4a3.294 3.294 0 0 0 1.1.053c.382-.031.485.151.5.467.007.123 0 .248.018.37.038.278.169.312.391.151a5.353 5.353 0 0 1 7.122 1.146 4.564 4.564 0 0 1 .85 2.153 5.528 5.528 0 0 1-.635 3.964 4.807 4.807 0 0 1-4.106 2.462 5.806 5.806 0 0 1-3.226-.776c-.373-.215-.419-.175-.418.273.005 1.384 0 2.768.009 4.152 0 .38-.092.6-.534.545a6.489 6.489 0 0 0-.78-.007c-.5 0-.732-.231-.734-.767-.006-1.755 0-3.509 0-5.263zm8.473-3.4a3.458 3.458 0 0 0-.422-1.976 3.19 3.19 0 0 0-2.906-1.438 2.763 2.763 0 0 0-2.639 1.68 5.241 5.241 0 0 0-.468 2.6 1.628 1.628 0 0 0 .628 1.381 8.114 8.114 0 0 0 1.206.781 3.354 3.354 0 0 0 3.689-.534 2.968 2.968 0 0 0 .911-2.491" transform="translate(-129.522 -50.269)" style="fill:#fbb444"/>
        <path data-name="Pfad 994" d="M240.875 79.551a5.1 5.1 0 0 0-5.866-4.09 4.819 4.819 0 0 0-4.336 3.959 5.219 5.219 0 0 0 5.62 6.611 7.339 7.339 0 0 0 2.168-.41 4.733 4.733 0 0 0 1.943-1.259c.116-.146.223-.283.037-.46-.3-.283-.583-.58-.88-.864a.365.365 0 0 0-.55-.027 4.6 4.6 0 0 1-3.432 1.074 3.074 3.074 0 0 1-2.867-2.058c-.126-.352-.073-.437.3-.438h3.66v.021c1.22 0 2.44-.008 3.66 0a.5.5 0 0 0 .588-.472 4.661 4.661 0 0 0-.048-1.591m-2.556.139c-.849.006-1.7 0-2.547 0s-1.727.01-2.59 0c-.572-.008-.618-.132-.37-.631a3.37 3.37 0 0 1 5.4-.616 5.667 5.667 0 0 1 .425.7c.223.411.143.545-.321.548" transform="translate(-154.63 -50.59)" style="fill:#fbb444"/>
        <path data-name="Pfad 995" d="M365.646 21.8c-.039-.279-.148-.169-.28-.059a9.006 9.006 0 0 1-1.487 1.077 4.028 4.028 0 0 1-1.207.4 4.621 4.621 0 0 1-5.174-2.452 5.311 5.311 0 0 1-.376-3.268 4.085 4.085 0 0 1 2.053-3.131 4.858 4.858 0 0 1 3.88-.46 4.977 4.977 0 0 1 2.518 1.784 5.163 5.163 0 0 0 .075-1.453c-.03-.306.121-.375.388-.377.244 0 .4 0 .4.334-.013 2.959.027 5.92-.025 8.878a4.368 4.368 0 0 1-1.681 3.578 5.326 5.326 0 0 1-3.345.91 8.43 8.43 0 0 1-2.9-.71.566.566 0 0 1-.2-.809c.092-.127.183-.088.282-.032a5.661 5.661 0 0 0 1.747.631 5.873 5.873 0 0 0 3.243-.107 3.026 3.026 0 0 0 1.886-2.3 9.442 9.442 0 0 0 .206-2.426m-3.816.828a4.319 4.319 0 0 0 3.463-1.741 1.461 1.461 0 0 0 .357-1.016 24.452 24.452 0 0 0-.138-1.888 4.394 4.394 0 0 0-1-2.482 2.739 2.739 0 0 0-1.679-.991 10.745 10.745 0 0 0-1.909-.05 2.328 2.328 0 0 0-1.277.4 4.377 4.377 0 0 0-1.651 4.8 3.5 3.5 0 0 0 3.832 2.96" transform="translate(-239.527 -9.189)" style="fill:#fff"/>
        <path data-name="Pfad 996" d="M180.322 69.9v-6.086c0-.329 0-.658.021-.987.011-.221.093-.346.367-.3a6.793 6.793 0 0 0 .942.051c.63.013.747.138.719.783-.017.383-.043.767-.044 1.15q-.008 6.045-.01 12.09c0 .681-.014.683-.7.654a12.421 12.421 0 0 0-.863-.014c-.305.008-.435-.094-.433-.43.013-2.3.007-4.605.007-6.908z" transform="translate(-120.974 -41.938)" style="fill:#fbb444"/>
        <path data-name="Pfad 997" d="M570.794 18.512c0-1.4.008-2.8-.006-4.194 0-.292.091-.389.376-.38s.5.034.459.4a1.259 1.259 0 0 0 .005.246c.006.062-.035.145.049.178a.18.18 0 0 0 .213-.067 1.955 1.955 0 0 1 .771-.575c1.847-.618 3.294-.3 4.327 1.167.19.268.275.255.459.006a3.261 3.261 0 0 1 2.776-1.456 3.169 3.169 0 0 1 3.276 2.439 4.623 4.623 0 0 1 .133 1.087c0 1.6-.011 3.207 0 4.811 0 .317-.1.615-.087.928.008.21-.146.162-.258.147-.155-.021-.387.093-.411-.2-.009-.123-.008-.247-.008-.37 0-1.59.007-3.18 0-4.77a6.176 6.176 0 0 0-.206-1.758 2.39 2.39 0 0 0-2.916-1.673 2.486 2.486 0 0 0-2.127 2.568c-.017 1.741-.013 3.481-.022 5.222 0 .218-.044.436-.04.653.005.267-.1.343-.366.332-.3-.012-.324-.174-.323-.4.006-.849.016-1.7 0-2.549a110.254 110.254 0 0 0-.086-3.353 2.582 2.582 0 0 0-1.046-2.062 2.3 2.3 0 0 0-.77-.334 2.553 2.553 0 0 0-3.344 2.482c-.008 1.809-.01 3.618-.018 5.427 0 .148-.021.3-.031.446-.022.345-.21.345-.482.347-.359 0-.275-.255-.276-.424-.011-1.439-.007-2.877-.007-4.316h-.025" transform="translate(-382.93 -9.27)" style="fill:#fff"/>
        <path data-name="Pfad 998" d="M170.753 15.66a4.776 4.776 0 0 0-.016-1.265c0-.14-.08-.344.1-.4a1.219 1.219 0 0 1 .565-.013c.128.025.067.187.074.289.088 1.27.054 2.544.067 3.815.016 1.561 0 3.122 0 4.683 0 .482-.051.518-.507.5-.241-.01-.307-.121-.3-.333.006-.3.013-.6 0-.9 0-.109.076-.27-.082-.321-.119-.039-.185.094-.258.17a4.781 4.781 0 0 1-2.311 1.324 4.868 4.868 0 0 1-3.374-.222 4.513 4.513 0 0 1-2.535-3.523 5.6 5.6 0 0 1 .131-2.361 4.467 4.467 0 0 1 2.08-2.721c1.323-.81 4.231-.721 5.361.44a8.447 8.447 0 0 1 .839.891l.124.2c.053-.077.11-.154.043-.252M163 18.536a5.219 5.219 0 0 0 .1 1.3c.04.156.1.305.156.457a3.655 3.655 0 0 0 3.534 2.467 4.5 4.5 0 0 0 3.762-2.106 1.2 1.2 0 0 0 .192-.691 8.583 8.583 0 0 0-.262-2.736 3.314 3.314 0 0 0-2.552-2.6 5.612 5.612 0 0 0-1.753-.1 3.254 3.254 0 0 0-1.918.869 3.968 3.968 0 0 0-1.259 3.14" transform="translate(-108.753 -9.29)" style="fill:#fff"/>
        <path data-name="Pfad 999" d="M427.73 18.825c-1.275 0-2.549.01-3.823-.007-.337 0-.461.088-.431.439a3.714 3.714 0 0 0 1.258 2.5c1.271 1.157 2.771 1.063 4.289.716a3.506 3.506 0 0 0 1.671-.792c.177-.166.295-.076.4.118s.242.35-.04.54a6.185 6.185 0 0 1-2.829 1.018 5.292 5.292 0 0 1-3.255-.57 4.729 4.729 0 0 1-2.367-4.646 4.6 4.6 0 0 1 2.583-3.891 4.893 4.893 0 0 1 3.174-.3 4.268 4.268 0 0 1 3.286 2.559 3.5 3.5 0 0 1 .308 1.534 1.139 1.139 0 0 0 .009.408c.148.371-.074.379-.33.377l-3.083-.028h-.822v.019m-.474-.677H430.703c.287 0 .514-.016.38-.44-.077-.246-.119-.513-.2-.765a3.246 3.246 0 0 0-1.689-2.061 4.4 4.4 0 0 0-3.195-.246 3.686 3.686 0 0 0-2.519 3.07c-.043.369.09.466.451.459 1.108-.022 2.217-.008 3.326-.008" transform="translate(-283.502 -9.279)" style="fill:#fff"/>
        <path data-name="Pfad 1000" d="M291.644 18.858h-3.946c-.235 0-.388.044-.345.31a4.305 4.305 0 0 0 1.3 2.65 3.479 3.479 0 0 0 2.157.907 5.64 5.64 0 0 0 3.807-.989c.288-.207.324.017.447.167.154.188.157.306-.063.459a6.253 6.253 0 0 1-2.931 1.038 5.008 5.008 0 0 1-3.849-.991 4.433 4.433 0 0 1-1.709-3.46 4.779 4.779 0 0 1 1.792-4.164 3.988 3.988 0 0 1 2.546-.887 5.71 5.71 0 0 1 2.123.216 4.49 4.49 0 0 1 1.913 1.383 4.333 4.333 0 0 1 .947 2.531c.049.83.079.833-.736.836h-3.453v-.006m-.5-.675h3.246c.243 0 .544.075.7-.106.083-.1-.042-.382-.087-.579a3.889 3.889 0 0 0-2.188-2.735 3.4 3.4 0 0 0-1.053-.238 3.734 3.734 0 0 0-2.584.449 3.952 3.952 0 0 0-1.821 2.885c-.033.229.015.335.295.331 1.164-.019 2.328-.008 3.493-.008" transform="translate(-192.209 -9.319)" style="fill:#fff"/>
        <path data-name="Pfad 1001" d="M202.084 14.165c-.683.061-.694.061-.694-.587q0-6.353.011-12.706c0-.041.005-.082 0-.123-.011-.181-.077-.442.19-.429.24.013.535.064.526.466-.022.932-.007 1.864-.006 2.8v2.467c0 .108-.034.244.093.282.1.03.154-.1.209-.168a3.622 3.622 0 0 1 4.171-1.248 3.28 3.28 0 0 1 2.259 2.79 49.085 49.085 0 0 1 .093 6.067.434.434 0 0 1-.652.408c-.148-.063-.088-.185-.089-.281-.006-.631.025-1.263-.01-1.891-.06-1.055.071-2.11-.012-3.161a4.213 4.213 0 0 0-.626-2.285 2.288 2.288 0 0 0-1.966-1.1 3.176 3.176 0 0 0-1.982.4 3.509 3.509 0 0 0-1.483 2.793c-.038 1.507-.017 3.015 0 4.523 0 .332-.2.65-.034.985" transform="translate(-135.107 -.214)" style="fill:#fff"/>
        <path data-name="Pfad 1002" d="M134.07 7.919c0-1.959-.005-3.918 0-5.877a1.47 1.47 0 0 1 1.361-1.5 11.263 11.263 0 0 1 1.541-.081c1.177.032 2.355.093 3.53.053.423-.014.4.143.4.419s-.2.272-.4.273c-1.4.008-2.794.009-4.19.03-1.291.02-1.456.035-1.423 1.376s.014 2.657.033 3.985c0 .147-.116.356.256.381 1.115.074 2.227-.044 3.339.011a11.544 11.544 0 0 0 1.186.039c.3-.016.292.125.294.339s-.008.341-.3.341c-1.452 0-2.9.037-4.357.033-.35 0-.469.072-.465.447.02 1.863.01 3.726.011 5.588 0 .288-.005.527-.423.517-.321-.008-.413-.087-.411-.413.015-1.986.008-3.973.008-5.959z" transform="translate(-89.936 -.306)" style="fill:#fff"/>
        <path data-name="Pfad 1003" d="M460.624 18.706v-4.069a.658.658 0 0 0-.028-.281.3.3 0 0 1 .075-.429.518.518 0 0 1 .541-.042c.189.065.156.223.165.375.015.237-.125.584.066.686.25.134.383-.231.56-.378a3.408 3.408 0 0 1 2.759-.757 4.513 4.513 0 0 1 1.359.3 3.63 3.63 0 0 1 1.92 2.359 4.4 4.4 0 0 1 .151 1.273c.021 1.4.013 2.8 0 4.193 0 .351-.052.7-.075 1.052-.008.126.013.264-.185.23-.171-.03-.412.086-.463-.2a1.98 1.98 0 0 1-.011-.328c0-1.37.066-2.745-.03-4.108a8.012 8.012 0 0 0-.213-2.242 2.6 2.6 0 0 0-2.453-1.84 8.495 8.495 0 0 0-1.295.067 2.759 2.759 0 0 0-1.794 1.675 6.314 6.314 0 0 0-.245 2.326c-.03 1.4-.013 2.795-.005 4.192 0 .35-.089.514-.491.474-.255-.026-.314-.09-.313-.33.009-1.4 0-2.795 0-4.192z" transform="translate(-308.967 -9.239)" style="fill:#fff"/>
        <path data-name="Pfad 1004" d="M262.283 23.455c-.9 0-1.81.016-2.714-.008a.942.942 0 0 1-.932-.564.761.761 0 0 1 .03-.661 8.374 8.374 0 0 1 1.142-1.55c.86-1.059 1.746-2.1 2.579-3.179.49-.637 1.049-1.22 1.575-1.829a1.965 1.965 0 0 0 .2-.261c.209-.343.125-.495-.272-.5-.955-.016-1.91-.059-2.864-.035-.559.014-1.119.024-1.677.05-.347.016-.275-.205-.281-.4s-.039-.371.274-.367c1.371.017 2.742 0 4.113.019a6.712 6.712 0 0 1 1.1.142c.5.091.691.613.424 1.142a7.609 7.609 0 0 1-1 1.334c-1.329 1.626-2.671 3.241-4 4.863-.173.211-.312.449-.485.66s-.054.3.135.324a4.325 4.325 0 0 0 .656.039q2.324-.006 4.647-.02c.24 0 .5-.025.47.336-.024.263-.035.5-.446.487-.89-.038-1.782-.012-2.673-.012v-.01" transform="translate(-173.473 -9.494)" style="fill:#fff"/>
        <path data-name="Pfad 1005" d="M395.426 22.543a3.076 3.076 0 0 0 1.521.158c1.409-.1 2.819-.029 4.229-.047.4-.005.2.34.237.533.054.266-.128.276-.326.276q-2.426-.007-4.852-.005a3.9 3.9 0 0 0-.493.006 1.061 1.061 0 0 1-1.024-.515c-.229-.294-.088-.519.029-.771a7.6 7.6 0 0 1 1.12-1.505c.639-.787 1.258-1.592 1.91-2.365.7-.825 1.38-1.662 2.1-2.468a2.972 2.972 0 0 0 .37-.489c.18-.312.1-.415-.269-.447-1.475-.129-2.95 0-4.425 0-.21 0-.451.04-.478-.286-.026-.305-.006-.485.41-.475 1.411.037 2.823.017 4.235.03a2.957 2.957 0 0 1 .721.1c.7.185.806.632.544 1.269a2.073 2.073 0 0 1-.325.472 249.459 249.459 0 0 1-4.19 5.056 6.456 6.456 0 0 0-1.043 1.476" transform="translate(-264.725 -9.489)" style="fill:#fff"/>
        <path data-name="Pfad 1006" d="M324.394 14.445a.328.328 0 0 1 .081-.267c.684-.062.7-.062.695.69-.011 1.808-.068 3.617.038 5.422a2.961 2.961 0 0 0 5.908.04c.167-1.925.042-3.853.066-5.779 0-.375.149-.393.452-.414.363-.025.365.156.364.416 0 1.671.038 3.343 0 5.013a4.123 4.123 0 0 1-1.247 3.086 3.383 3.383 0 0 1-2.336.9 3.856 3.856 0 0 1-2.041-.333 3.5 3.5 0 0 1-1.91-3.019c-.07-1.737-.033-3.477-.041-5.217a1.547 1.547 0 0 0-.034-.529" transform="translate(-217.627 -9.482)" style="fill:#fff"/>
        <path data-name="Pfad 1007" d="M538.056 17.144c.056 1.04-.011 2.08.058 3.122a2.887 2.887 0 0 0 2.26 2.662 2.968 2.968 0 0 0 3.7-2.882c.045-1.872.028-3.743.051-5.614 0-.216.058-.3.274-.272.194.029.467-.1.478.269a42.508 42.508 0 0 1 .006 4.3 12.569 12.569 0 0 1-.162 1.983 3.334 3.334 0 0 1-2.62 2.746 4.063 4.063 0 0 1-2.867-.288 3.591 3.591 0 0 1-1.829-2.876c-.2-1.935-.035-3.885-.082-5.828-.008-.316.188-.3.4-.317.249-.018.336.074.332.325-.011.89 0 1.78 0 2.669" transform="translate(-360.468 -9.491)" style="fill:#fff"/>
        <path data-name="Pfad 1008" d="M512.808 18.779c0-1.411.009-2.821-.007-4.232 0-.293.082-.382.369-.371.257.01.473 0 .449.355s-.022.684-.046 1.024c-.007.092-.073.2.023.258.12.066.188-.043.258-.134a3.646 3.646 0 0 1 2.977-1.505c.285 0 .553.1.843.1.26 0 .251.271.223.467a.268.268 0 0 1-.36.259c-2.063-.462-3.225.721-3.742 2.44a8.336 8.336 0 0 0-.189 2.26c-.023 1.149.034 2.3-.035 3.448-.02.342-.192.326-.437.342-.337.021-.305-.209-.307-.4-.011-1.15-.013-2.3-.017-3.451v-.863" transform="translate(-344.027 -9.51)" style="fill:#fff"/>
        <path data-name="Pfad 1009" d="M494.117 11.7V6.893c0-.082-.007-.165 0-.247.009-.143-.219-.295.006-.429a.966.966 0 0 1 .6-.047c.188.016.148.2.15.329.007.63.034 1.261.01 1.89-.013.348.12.412.429.4.561-.019 1.123 0 1.685 0 .236 0 .444.009.424.34-.017.281-.116.419-.426.407-.588-.022-1.179.007-1.767-.02-.314-.015-.38.089-.378.389.016 2.246.013 4.492.015 6.738a.8.8 0 0 0 .827.709c.169.007.392-.106.48.173.148.471.071.586-.43.556-1.054-.062-1.607-.513-1.622-1.659-.021-1.575-.005-3.151 0-4.727" transform="translate(-331.429 -4.123)" style="fill:#fff"/>
        <path data-name="Pfad 1010" d="M235.552 15.811c.293-.268.563-.509.827-.758a3.448 3.448 0 0 1 3.216-.809c.347.067.321.324.3.553-.027.3-.3.219-.452.182-2.185-.532-3.5 1.342-3.74 2.842a40.609 40.609 0 0 0-.14 5.27c-.008.3-.079.384-.388.387s-.366-.148-.366-.4q0-4.274-.009-8.549c0-.291.126-.371.4-.374.3 0 .371.118.356.4-.023.416-.006.834-.006 1.254" transform="translate(-157.523 -9.494)" style="fill:#fff"/>
        <path data-name="Pfad 1011" d="M188.041 19.352c.067.1.01.174-.043.252l-.124-.2.167-.052" transform="translate(-126.041 -12.983)" style="fill:#fff"/>
        <path data-name="Pfad 1012" d="M315.531 56.735v.067c-.065 0-.034-.039-.027-.067h.023" transform="translate(-211.659 -38.062)" style="fill:#fff"/>
        <path data-name="Pfad 1013" d="M324.649 14.265" transform="translate(-217.799 -9.57)" style="fill:#fff"/>
        <path data-name="Pfad 1014" d="M324.4 15.08" transform="translate(-217.629 -10.117)" style="fill:#fff"/>
        <path data-name="Pfad 1015" d="M383.2 38.31" transform="translate(-257.078 -25.701)" style="fill:#fff"/>
        <path data-name="Pfad 1016" d="M36.653 28.682a2.706 2.706 0 0 0 2.468-1.406 74.335 74.335 0 0 0 1.656-2.822c.13-.23.188-.194.4-.071a1.473 1.473 0 0 1 .667 1 7.114 7.114 0 0 1-1.737 7.017 6.987 6.987 0 0 1-4.2 2.216 3.724 3.724 0 0 0-2.728 2c-1.485 2.544-2.953 5.1-4.457 7.632-.368.62-.714 1.251-1.069 1.877-.148.261-.274.331-.47.04-.3-.44-.612-.868-.923-1.3a.639.639 0 0 1-.037-.782q1.708-2.9 3.389-5.824 1.21-2.09 2.406-4.187a3.428 3.428 0 0 0 .286-.679.846.846 0 0 0-.505-1.145c-.379-.177-.736.008-1.054.467-2.218 3.2-3.919 6.7-5.953 10a1.2 1.2 0 0 1-1.236.73c-.463-.048-.935-.015-1.4-.02-.3 0-.377-.129-.219-.392.873-1.459 1.776-2.9 2.607-4.384.926-1.654 1.932-3.26 2.853-4.917q.18-.323.368-.642a3.521 3.521 0 0 0 .185-3.215 6.415 6.415 0 0 1-.466-2.348 7.53 7.53 0 0 1 2.613-5.684 7.223 7.223 0 0 1 3.552-1.643c.629-.127.9.174.621.763-.348.747-.8 1.447-1.2 2.167a4.08 4.08 0 0 0-.7 1.793 2.507 2.507 0 0 0 1.046 2.232 12.586 12.586 0 0 0 2.284 1.331 1.755 1.755 0 0 0 .957.2" transform="translate(-13.541 -13.546)" style="fill:#fbb444"/>
    </g>
</svg>
