<?xml version="1.0" encoding="UTF-8"?>
<svg id="Ebene_2" data-name="Ebene 2" xmlns="http://www.w3.org/2000/svg" viewBox="0 0 596.69 118.02">
  <defs>
    <style>
      .cls-1 {
        fill: #fbbc0d;
      }

      .cls-2 {
        fill: #fff;
      }

      .cls-3 {
        fill: #1d1d1b;
      }
    </style>
  </defs>
  <g id="Ebene_1-2" data-name="Ebene 1">
    <g>
      <path class="cls-1" d="m38.77,102.43c-1.45-2.16-2.88-4.3-4.39-6.55,5.57-9.61,11.25-19.41,16.94-29.21.85-1.47,1.72-2.93,2.55-4.4,1.03-1.82.71-3.54-.81-4.45-1.53-.92-3.21-.39-4.27,1.43-2.84,4.85-5.65,9.72-8.48,14.58-3.08,5.31-6.15,10.62-9.24,15.92-.66,1.14-1.39,2.23-1.92,3.08h-8.1c1.23-2.14,2.43-4.28,3.66-6.4,5.04-8.67,10.05-17.35,15.14-25.99,1.86-3.16,2.12-6.29.81-9.73-5.28-13.93,3.52-28.95,18.09-30.93.64-.09,1.64.1,1.92.52.28.43.05,1.41-.27,1.98-1.51,2.74-3.14,5.41-4.71,8.12-2.66,4.6-1.38,9.47,3.2,12.18,1.6.95,3.19,1.89,4.81,2.8,4.25,2.37,9.09,1.11,11.62-3.06,1.71-2.81,3.3-5.69,5.03-8.49.34-.55,1.11-1.21,1.62-1.16.52.06,1.15.85,1.39,1.45,5.36,13.57-3.3,28.72-17.71,30.92-3.81.58-6.53,2.41-8.43,5.76-3.76,6.64-7.65,13.21-11.49,19.8-2.08,3.57-4.16,7.13-6.24,10.7-.26.45-.55.88-.71,1.13"/>
      <path class="cls-3" d="m20.8,88.1c-1.26,2.14-2.42,4.27-3.74,6.29-.64.98-3.32,1-4.12.15-.18-.19-.25-.57-.21-.83.09-.52.29-1.02.46-1.52,1.56-4.72,2.31-5.13,7.6-4.09"/>
      <path class="cls-3" d="m15.04,86.83c1.15-3.38,2.2-6.48,3.26-9.58.05-.14.18-.25.37-.51.19.28.41.49.5.73.86,2.5,1.69,5.02,2.57,7.52.42,1.21.12,1.85-1.23,1.83-1.74-.01-3.48,0-5.46,0"/>
      <path class="cls-3" d="m77.45,87.05c-.85,0-1.7.01-2.54,0-1.84-.03-2.04-.33-1.38-2.09.86-2.33,2.47-3.36,4.9-3.15,1.71.15,2.96,1.39,3.36,3.33.25,1.21-.01,1.98-1.47,1.9-.95-.05-1.91,0-2.86,0h0Z"/>
      <path class="cls-2" d="m107.52,36.62c-3.34-5.85-6.69-11.69-10.06-17.53-1.74-3.02-3.61-3.56-6.74-1.99-2.57,1.29-5.26,2.01-8.15,1.64-7.63-.96-12.88-6.64-13.38-14.43-.18-2.8-1.7-4.29-4.47-4.3-6.95-.02-13.91-.02-20.86,0-2.95,0-4.44,1.38-4.54,4.34-.36,10.49-11.79,18.18-22.06,12.59-2.52-1.37-4.62-.7-6.05,1.79-3.45,5.97-6.9,11.94-10.32,17.93-1.52,2.65-.98,4.68,1.61,6.36,9.47,6.12,9.51,19.11.08,25.27-2.78,1.82-3.26,3.73-1.61,6.59,3.3,5.75,6.61,11.5,9.93,17.24.2.34.46.67.79,1.13,0,0,0,.02,0,.02,0,0,1.34,2.34,3.38,1.88,1.39-.32,1.5.54,3.56-3.06l.54-.71,5.59-10.08c1.3-2.27,2.59-4.55,3.99-6.77.77-1.21.68-2.05-.06-3.26-8.72-14.14-4.15-32.71,10.04-41.31.96-.58,1.84-1.42,2.51-2.32,4.49-6.01,10.39-9.57,17.84-10.54,1.63-.21,2.93.37,3.85,1.72.89,1.31.88,2.69.13,4.07-.33.61-.7,1.19-1.03,1.8-.82,1.49-.74,1.74.87,2.24,4.28,1.31,8.07,3.47,11.39,6.47,2.17,1.96,2.2,1.97,3.68-.64.95-1.68,2.13-2.96,4.24-2.76,2.09.2,3.06,1.65,3.71,3.46,2.44,6.9,2.07,13.64-.99,20.27-.39.83-.62,1.8-.68,2.72-.67,11.32-5.88,19.83-15.68,25.54-.08.05-.16.11-.23.15-2.37,1.13-5.51,2.29-7.25,2.86-.6.16-1.2.3-1.8.41-1.07.11-2.57.14-3.97.2-.12-.01-.24-.01-.36-.03-1.07-.14-1.88-.02-2.55.25-.25.05-.46.1-.6.16-.16.07-.4.32-.69.69-.47.48-.84,1.08-1.19,1.71-2.07,3.18-4.9,8.38-4.9,8.38,0,0,.02.01.02.01-1.57,2.88-3.13,5.79-4.98,8.49-1.84,2.69.23,6.25,3.58,6.22,7.06-.06,14.12,0,21.18-.03,2.65-.01,4.19-1.57,4.39-4.25.07-.9.09-1.81.25-2.69.72-3.94,2.85-7.01,6.03-9.39,0,0-.01-.01-.02-.02.69-.48,1.38-.85,2.03-1.15.3-.06.62-.15.97-.3,3.62-1.52,7.26-1.49,10.82-.12.72.44,3.87,2.3,5.46,1.89,1.3-.34,3.62-4.52,5.13-7.4.13-.22.25-.42.38-.64-.01,0-.02-.01-.04-.02.24-.45.44-.85.61-1.17.12-.15.24-.29.32-.43,2.2-3.81,4.43-7.61,6.58-11.45,1.32-2.36.68-4.45-1.7-5.98-9.55-6.13-9.58-19.22-.06-25.35,2.59-1.67,3.09-3.67,1.55-6.37"/>
      <path class="cls-2" d="m596.69,24.56c0-3.38-.86-6.07-2.59-8.09-1.82-2.15-4.39-3.22-7.71-3.22-3.74,0-6.7,1.8-8.86,5.41-2.07-3.61-5.02-5.41-8.83-5.41-3.34,0-5.93,1.11-7.77,3.34v-2.82h-2.47v27.82h2.47v-19.42c.25-1.75.94-3.22,2.07-4.43,1.44-1.53,3.3-2.3,5.58-2.3,2.4,0,4.31.8,5.73,2.42,1.36,1.53,2.04,3.52,2.04,5.96v17.78h2.36v-17.78c0-2.44.68-4.42,2.04-5.96,1.42-1.61,3.34-2.42,5.76-2.42s4.31.8,5.73,2.42c1.36,1.53,2.04,3.52,2.04,5.96v17.78h2.42v-17.03Zm-48.4-10.79h-2.42v16.52c0,2.78-.78,5.06-2.33,6.85-1.63,1.88-3.82,2.82-6.56,2.82s-4.99-.93-6.62-2.79c-1.55-1.77-2.33-4.06-2.33-6.88V13.77h-2.36v15.74c0,3.76.93,6.75,2.79,8.98,1.99,2.42,4.83,3.63,8.52,3.63s6.47-1.22,8.49-3.66c1.88-2.24,2.82-5.23,2.82-8.95v-15.74Zm-31.4.32c-1.73-.25-2.75-.39-3.08-.43-4.24,0-7.48,1.85-9.73,5.55v-5.44h-2.36v27.82h2.36v-12.44c0-4.18.87-7.4,2.62-9.65,1.84-2.36,4.1-3.53,6.76-3.51,2.36.27,3.44.4,3.25.4l.17.03v-2.33Zm-23.44-.32h-7.54v-7.88h-2.42v30.3c0,3.61,1.76,5.41,5.27,5.41h1.24v-2.27h-1.67c-1.61,0-2.42-1.13-2.42-3.4v-19.88h7.54v-2.27Zm-20.01,12.08c0-3.72-.94-6.7-2.82-8.95-2.01-2.44-4.84-3.65-8.49-3.65-3.88,0-6.85,1.43-8.92,4.29v-3.83h-2.42v27.88h2.42v-17.13c0-2.73.81-4.92,2.42-6.56,1.61-1.64,3.78-2.46,6.5-2.46s4.94.94,6.59,2.82c1.57,1.78,2.36,4.07,2.36,6.85v16.49h2.36v-15.74Zm-57.41.35c.31-3.2,1.5-5.8,3.57-7.78,2.07-1.99,4.71-2.98,7.91-2.98s5.83.99,7.88,2.98c2.05,1.98,3.23,4.58,3.54,7.78h-22.9Zm21.52-9c-2.63-2.63-5.97-3.95-10.01-3.95s-7.55,1.36-10.16,4.09c-2.61,2.72-3.91,6.18-3.91,10.36s1.33,7.73,3.99,10.4c2.66,2.68,6.11,4.01,10.37,4.01,5.28,0,9.26-1.38,11.94-4.14l-1.78-1.7c-1.07,1.13-2.65,2.02-4.72,2.68-1.84.59-3.65.89-5.44.89-3.42,0-6.19-1.04-8.32-3.12-2.13-2.08-3.29-4.83-3.48-8.25h25.32c.1-.34.14-.77.14-1.26,0-4.04-1.31-7.38-3.94-10.01m-31.11,21.98h-16.31c-.83,0-1.24-.24-1.24-.72,0-.29.15-.62.45-.98l15.07-18.28c.84-.99,1.25-1.94,1.25-2.84,0-1.72-1.33-2.58-4-2.58h-14.16v2.27h14.53c.71,0,1.07.24,1.07.71,0,.21-.12.45-.38.73l-15.16,18.39c-.98,1.19-1.47,2.18-1.47,2.96,0,1.84,1.22,2.76,3.65,2.76h16.69v-2.42Zm-37.6-.52c-1.61.79-3.42,1.18-5.43,1.18-3.62,0-6.47-1.14-8.54-3.43-1.99-2.19-2.99-5.11-2.99-8.77s1.02-6.52,3.05-8.75c2.09-2.3,4.91-3.45,8.48-3.45,3.76,0,6.66,1.38,8.71,4.14,1.84,2.46,2.76,5.63,2.76,9.52v4.23c-1.55,2.34-3.56,4.11-6.03,5.32m8.45-24.89h-2.42v5.64c-2.8-4.1-6.67-6.16-11.6-6.16-4.32,0-7.73,1.34-10.24,4.03-2.47,2.61-3.71,6.08-3.71,10.42s1.28,7.73,3.86,10.4c2.57,2.68,5.98,4.01,10.21,4.01,1.92,0,3.73-.32,5.44-.95.75-.29,1.71-.85,2.88-1.7,1.4-1.04,2.46-1.99,3.17-2.88v3.89c0,3.59-.94,6.43-2.82,8.54-1.96,2.21-4.71,3.31-8.26,3.31-3.88,0-7.41-.92-10.59-2.76l-.83,2.42c2.67,1.11,4.49,1.8,5.47,2.07,1.67.46,3.62.69,5.84.69,4.28,0,7.63-1.32,10.07-3.97,2.36-2.55,3.54-5.98,3.54-10.3V13.77Zm-37.29,0h-2.42v16.52c0,2.78-.78,5.06-2.33,6.85-1.63,1.88-3.82,2.82-6.56,2.82s-4.99-.93-6.62-2.79c-1.55-1.77-2.33-4.06-2.33-6.88V13.77h-2.36v15.74c0,3.76.93,6.75,2.79,8.98,1.99,2.42,4.83,3.63,8.52,3.63s6.47-1.22,8.49-3.66c1.88-2.24,2.82-5.23,2.82-8.95v-15.74Zm-57.13,12.43c.31-3.2,1.5-5.8,3.57-7.78,2.07-1.99,4.71-2.98,7.91-2.98s5.83.99,7.88,2.98c2.05,1.98,3.23,4.58,3.54,7.78h-22.9Zm21.52-9c-2.63-2.63-5.97-3.95-10.01-3.95s-7.55,1.36-10.16,4.09c-2.61,2.72-3.91,6.18-3.91,10.36s1.33,7.73,3.99,10.4c2.66,2.68,6.11,4.01,10.37,4.01,5.27,0,9.26-1.38,11.94-4.14l-1.78-1.7c-1.08,1.13-2.65,2.02-4.72,2.68-1.84.59-3.65.89-5.44.89-3.42,0-6.19-1.04-8.32-3.12s-3.29-4.83-3.48-8.25h25.32c.1-.34.14-.77.14-1.26,0-4.04-1.31-7.38-3.94-10.01m-31.11,21.98h-16.31c-.83,0-1.24-.24-1.24-.72,0-.29.15-.62.45-.98l15.07-18.28c.83-.99,1.25-1.94,1.25-2.84,0-1.72-1.33-2.58-4-2.58h-14.16v2.27h14.53c.71,0,1.07.24,1.07.71,0,.21-.12.45-.38.73l-15.16,18.39c-.98,1.19-1.47,2.18-1.47,2.96,0,1.84,1.22,2.76,3.65,2.76h16.69v-2.42Zm-28.4-25.09c-1.73-.25-2.75-.39-3.08-.43-4.24,0-7.48,1.85-9.73,5.55v-5.44h-2.36v27.82h2.36v-12.44c0-4.18.87-7.4,2.62-9.65,1.84-2.36,4.1-3.53,6.76-3.51,2.36.27,3.44.4,3.25.4l.17.03v-2.33Zm-25.31,11.48c0-3.63-.87-6.54-2.62-8.75-1.9-2.42-4.62-3.63-8.17-3.63-4.09,0-7.25,1.84-9.49,5.53V.39h-2.36v41.2h2.36v-15.15c0-3.09.8-5.64,2.39-7.66,1.73-2.21,4.09-3.31,7.11-3.31,2.63,0,4.72.97,6.27,2.91,1.44,1.79,2.16,4.02,2.16,6.71v16.51h2.36v-16.03Zm-41.64,13.09c-1.59.79-3.31,1.18-5.14,1.18-3.62,0-6.47-1.14-8.54-3.43-1.99-2.19-2.99-5.11-2.99-8.77s1.01-6.52,3.05-8.75c2.09-2.3,4.91-3.45,8.48-3.45,3.76,0,6.66,1.38,8.71,4.14,1.84,2.46,2.76,5.63,2.76,9.52v3.77c-1.46,2.49-3.56,4.42-6.32,5.78m8.74-24.92h-2.42v5.67c-2.8-4.1-6.67-6.16-11.6-6.16-4.32,0-7.73,1.34-10.24,4.03-2.48,2.61-3.71,6.08-3.71,10.42s1.29,7.73,3.86,10.4c2.57,2.68,5.98,4.01,10.21,4.01,1.8,0,3.52-.32,5.15-.95,2.7-1.05,4.81-2.64,6.33-4.75v5.18h2.42V13.74ZM151.61.39h-15.33c-1.52,0-2.75.44-3.7,1.32-.95.88-1.43,2.07-1.43,3.57v36.31h2.56v-19.51h15.05v-2.27h-15.05V5.26c0-1.44.78-2.27,2.33-2.5h15.56V.39Z"/>
      <path class="cls-1" d="m229.77,88.33c.3-3.13,1.48-5.67,3.53-7.61s4.66-2.91,7.83-2.91,5.77.97,7.81,2.91c2.03,1.94,3.2,4.47,3.5,7.61h-22.68Zm21.31-8.79c-2.6-2.57-5.91-3.86-9.91-3.86s-7.47,1.33-10.06,3.99c-2.58,2.66-3.87,6.04-3.87,10.12s1.32,7.55,3.95,10.16c2.63,2.61,6.05,3.92,10.27,3.92,5.22,0,9.16-1.35,11.82-4.05l-1.77-1.66c-1.06,1.11-2.62,1.98-4.67,2.61-1.82.58-3.62.87-5.38.87-3.38,0-6.12-1.01-8.23-3.04-2.11-2.03-3.26-4.72-3.45-8.06h25.07c.09-.34.14-.75.14-1.24,0-3.95-1.3-7.21-3.9-9.78m-38.07,18.75c-2.07,2.25-4.88,3.37-8.42,3.37-1.82,0-3.52-.38-5.09-1.15-2.73-1.33-4.82-3.21-6.26-5.65v-3.68c0-3.84.9-6.95,2.7-9.33,2.01-2.68,4.89-4.02,8.65-4.02,3.53,0,6.33,1.12,8.39,3.37,2.01,2.19,3.02,5.04,3.02,8.55s-1,6.39-2.99,8.55m1.85-18.67c-2.49-2.62-5.86-3.94-10.13-3.94-4.88,0-8.71,2.01-11.5,6.02v-6.38h-2.42v40.97l.03.03h2.39v-17.99c1.48,2.06,3.57,3.61,6.27,4.64,1.61.62,3.31.93,5.1.93,4.22,0,7.59-1.31,10.13-3.92,2.54-2.62,3.8-6,3.8-10.16s-1.22-7.63-3.67-10.18m-34.19-16.5h-2.39v40.26h2.39v-40.26Zm-18.67,33.09c-3.38,3.64-7.66,5.45-12.85,5.45s-9.53-1.81-12.9-5.43c-2.55-2.72-3.82-7.08-3.82-13.08s1.27-10.35,3.82-13.05c3.36-3.58,7.66-5.37,12.9-5.37s9.47,1.8,12.85,5.4c2.52,2.7,3.79,7.04,3.79,13.02s-1.26,10.33-3.79,13.05m1.82-27.7c-3.91-4.05-8.8-6.07-14.67-6.07s-10.83,2-14.7,5.99c-3.13,3.22-4.7,8.15-4.7,14.79s1.55,11.59,4.64,14.79c3.91,4.05,8.83,6.07,14.76,6.07,5.34,0,9.97-1.86,13.9-5.6,3.61-3.43,5.41-8.52,5.41-15.27s-1.55-11.5-4.64-14.7"/>
      <path class="cls-1" d="m194.94,118.02h-4.8l-1-1-.03-.73v-42.67h5.83v3.7c2.69-2.22,5.97-3.34,9.79-3.34,4.73,0,8.56,1.5,11.36,4.46,2.75,2.87,4.14,6.69,4.14,11.36s-1.44,8.42-4.28,11.35c-2.86,2.95-6.67,4.44-11.35,4.44-1.99,0-3.91-.35-5.71-1.04-1.47-.56-2.79-1.27-3.95-2.13v15.59Zm0-23.64c1.26,1.97,3,3.48,5.3,4.6,1.33.65,2.8.98,4.35.98,3.08,0,5.42-.92,7.17-2.82h0c1.71-1.85,2.54-4.27,2.54-7.39s-.84-5.51-2.57-7.4c-1.74-1.9-4.08-2.82-7.14-2.82-3.22,0-5.6,1.09-7.29,3.34-1.57,2.07-2.36,4.87-2.36,8.31v3.2Zm-45.79,11.41c-6.38,0-11.75-2.22-15.98-6.59-3.4-3.52-5.12-8.89-5.12-15.97s1.74-12.44,5.18-15.98c4.19-4.32,9.55-6.51,15.92-6.51s11.67,2.22,15.9,6.59h0c3.4,3.52,5.12,8.86,5.12,15.89s-2,12.76-5.94,16.5c-4.24,4.02-9.31,6.06-15.08,6.06Zm0-39.34c-4.79,0-8.61,1.58-11.66,4.83-2.23,2.36-3.35,6.36-3.35,11.88s1.13,9.53,3.36,11.91c3.07,3.29,6.89,4.89,11.66,4.89s8.53-1.61,11.6-4.91h0c2.21-2.38,3.33-6.38,3.33-11.89s-1.12-9.49-3.33-11.85c-3.07-3.27-6.87-4.86-11.6-4.86Zm92.3,39.14c-4.66,0-8.52-1.49-11.47-4.42-2.95-2.93-4.45-6.76-4.45-11.37s1.47-8.33,4.36-11.31c2.9-2.99,6.7-4.51,11.28-4.51s8.19,1.46,11.11,4.35c2.93,2.89,4.41,6.59,4.41,10.99,0,.65-.07,1.2-.21,1.69l-.35,1.25h-24.44c.4,2.08,1.29,3.77,2.71,5.13,1.79,1.73,4.1,2.57,7.05,2.57,1.58,0,3.22-.27,4.87-.79,1.77-.55,3.1-1.28,3.96-2.17l1.17-1.22,4.27,4.01-1.23,1.24c-2.98,3.02-7.36,4.56-13.04,4.56Zm-9.67-18.96h18.65c-.46-1.87-1.35-3.4-2.67-4.67-1.72-1.64-3.89-2.44-6.63-2.44s-4.92.8-6.66,2.44c-1.34,1.26-2.22,2.8-2.69,4.66Zm-49.41,18.45h-5.8v-43.67h5.8v43.67Z"/>
    </g>
  </g>
</svg>