<svg xmlns="http://www.w3.org/2000/svg" width="14.615" height="13.988" viewBox="0 0 14.615 13.988">
  <defs>
    <style>
      .cls-1 {
        fill: #f3c142;
      }
    </style>
  </defs>
  <path id="star-solid" class="cls-1" d="M27.023.474,25.239,4.091l-3.991.582a.875.875,0,0,0-.484,1.492l2.887,2.814-.683,3.975a.874.874,0,0,0,1.268.921L27.807,12l3.57,1.877a.874.874,0,0,0,1.268-.921l-.683-3.975,2.887-2.814a.875.875,0,0,0-.484-1.492l-3.991-.582L28.591.474a.875.875,0,0,0-1.568,0Z" transform="translate(-20.5 0.013)"/>
</svg>
